<?xml version="1.0" encoding="UTF-8"?><svg xmlns="http://www.w3.org/2000/svg" viewBox="0 0 29 27.12"><defs><style>.cls-1,.cls-2{fill:#f15d9d;}.cls-2{opacity:.2;}</style></defs><g id="Warstwa_5"><polygon class="cls-2" points="5.09 .83 .96 5.12 2.46 9.5 3.21 25.12 14.5 26.25 14.46 20 10.79 19.75 9.54 22.12 6.88 22.79 5.17 21.83 7.04 14.54 8.38 12.72 10.29 12.16 12.29 13.33 14.46 13.21 14.46 .83 5.09 .83"/><polygon class="cls-2" points="23.77 .9 27.9 5.19 26.4 9.57 25.65 25.19 14.36 26.32 14.4 20.07 18.06 19.82 19.31 22.19 21.98 22.86 23.69 21.9 21.81 14.6 20.48 12.79 18.56 12.23 16.56 13.4 14.4 13.27 14.4 .9 23.77 .9"/></g><g id="Warstwa_2"><path class="cls-1" d="m28.96,4.94c-.01-.11-.03-.22-.08-.32-.64-1.57-3.44-3.93-3.99-4.39-.18-.15-.41-.23-.64-.23H4.75c-.24,0-.46.08-.64.23C3.55.69.76,3.05.11,4.62c-.04.1-.06.21-.07.32-.08,1.33-.23,3.97,1.66,4.95,0,.18-.01.48-.03.88-.49,12.36.25,14.95,1.8,15.4,1.99.58,3.84.95,10.99.95h.08c7.15,0,9-.37,10.99-.95,1.54-.45,2.29-3.03,1.8-15.4-.02-.4-.03-.69-.04-.87,1.9-.98,1.74-3.63,1.67-4.96Zm-4.14,19.35c-1.77.51-3.59.83-10.28.83h-.08c-6.69,0-8.51-.33-10.28-.83-.33-.55-.93-2.96-.51-13.44,0-.26.02-.48.02-.66.58-.09,1.17-.32,1.74-.69.28-.19.56-.41.83-.66.6.68,1.58,1.41,2.57,1.41.8,0,1.99-.58,2.87-1.4.05.06.09.11.15.17.68.72,1.53,1.14,2.41,1.21.09.02.19.02.28.02.07,0,.14-.01.2-.02.88-.07,1.73-.49,2.41-1.21.05-.06.1-.11.15-.17.87.82,2.07,1.4,2.87,1.4.98,0,1.97-.73,2.57-1.41.26.25.55.47.83.66.57.37,1.16.6,1.73.69,0,.18.02.4.03.66.42,10.48-.18,12.89-.51,13.44Zm1.36-16.08c-.48.14-1.05-.12-1.34-.28-.77-.44-1.22-1.07-1.26-1.23-.08-.55-.59-.95-1.13-.88-.53.08-.9.53-.86,1.05v.07c-.05.42-1.01,1.31-1.42,1.31-.51,0-1.89-1.04-2-1.46v-.04s-.01-.06-.01-.09c-.07-.5-.49-.87-.99-.87h-.03c-.54.01-.97.46-.97,1v.05c-.02.33-.71,1.35-1.63,1.41h-.08c-.93-.06-1.62-1.08-1.63-1.4v-.06c0-.54-.43-.99-.98-1-.52-.02-.99.41-1.02.95v.02c-.13.47-1.5,1.49-2,1.49-.41,0-1.39-.9-1.43-1.28h0c.08-.55-.31-1.06-.85-1.14-.54-.08-1.03.29-1.12.82,0,.01,0,.02,0,.03-.05.19-.49.81-1.26,1.25-.29.16-.85.42-1.34.28-.84-.25-.87-1.58-.8-2.96.43-.8,1.95-2.28,3.09-3.25h18.78c1.14.97,2.66,2.45,3.08,3.25.08,1.38.05,2.71-.79,2.96Z"/></g><g id="Warstwa_4"><g><path class="cls-1" d="m22.24,14.41c-.86-2.12-2.25-2.58-3.26-2.58-1.45,0-2.23.66-2.55,1.02-.39-.04-1.17-.1-1.96-.1s-1.57.06-1.96.1c-.32-.36-1.1-1.02-2.55-1.02-1.01,0-2.4.45-3.26,2.58-.32.77-1.89,5.78-1.89,6.9,0,1.69,1.25,1.89,2.19,1.89,1.32,0,3.75-.66,4.08-3.07,1.55.17,3.32.17,3.4.17s1.85,0,3.4-.17c.33,2.41,2.75,3.07,4.08,3.07.93,0,2.19-.2,2.19-1.89,0-1.12-1.57-6.13-1.89-6.9Zm-.29,7.91c-.13,0-3.18-.04-3.23-2.67v-.51s-.51.07-.51.07c-1.57.21-3.73.21-3.75.21s-2.18,0-3.75-.21l-.5-.07v.51c-.05,2.64-3.1,2.67-3.23,2.67-1.2,0-1.3-.4-1.3-1,0-.88,1.46-5.67,1.82-6.57.55-1.34,1.37-2.03,2.44-2.03,1.44,0,1.95.79,1.97.83l.14.24.28-.03s1.08-.12,2.11-.12,2.11.12,2.11.12l.28.02.15-.23s.53-.83,1.97-.83c1.08,0,1.89.68,2.44,2.03.37.9,1.82,5.69,1.82,6.57,0,.6-.1,1-1.3,1Z"/><g><path class="cls-1" d="m16.81,17.36c-.17.17-.45.17-.62,0l-1.28-1.29v2.59c0,.25-.2.44-.44.44s-.44-.2-.44-.44v-2.59l-1.28,1.29c-.17.18-.45.18-.62,0-.18-.18-.18-.45,0-.63l1.98-2s.05-.06.09-.09c.04-.03.07-.05.12-.07.15-.06.32-.04.45.07.04.03.06.05.09.09l1.98,2c.17.18.17.45,0,.63Z"/><path class="cls-1" d="m14.18,14.64s-.06.05-.09.09l.05-.06s.03-.02.04-.03Z"/></g></g></g></svg>