<svg xmlns="http://www.w3.org/2000/svg" width="713" height="592" fill="none"><g clip-path="url(#a)"><path fill="#F9CDE0" d="M673.827 248.14c-2.449 5.476-4.638 10.973-6.373 16.528-11.338 20.042-33.515 35.141-53.482 49.152-26.644 18.693-54.253 45.207-48.3 77.027 4.342 23.215 25.227 40.457 41.566 58.753 16.054 17.956 28.867 40.321 30.851 62.789.635 6.994.204 14.011-1.497 20.903-9.002 36.456-50.92 56.849-90.841 58.549-35.693 1.519-71.113-8.116-106.59-15.133a546.347 546.347 0 0 0-12.597-2.369c-35.647-6.246-71.839-8.241-107.758-12.05-21.27-2.256-42.45-5.146-63.369-9.942-56.226-12.866-113.529-43.552-136.103-94.257-16.622-37.374-11.384-80.053 6.531-115.523a149.815 149.815 0 0 1 3.855-7.198c20.953-36.784 54.253-65.589 89.378-90.754 28.096-20.121 58.8-39.528 74.594-69.443 10.499-19.883-5.363-9.091 12.994-22.842 7.653-5.736 16.996-10.599 27.075-14.555 16.52-6.507 35.001-10.587 51.215-12.072 15.17-1.395 37.665-2.256 63.788-1.372 54.446 1.825 124.618 11.245 176.932 39.256 21.418 11.472 38.334 29.938 45.682 51.963 4.047 12.129 4.523 22.898 2.449 32.59"/><path fill="#4D404E" d="M667.455 264.668c-3.878 12.277-5.635 24.814-3.549 37.907 5.782 36.252 39.99 62.857 46.384 99.006 7.495 42.408-25.76 81.505-62.076 104.652a264.61 264.61 0 0 1-10.125 6.156c-42.133 24.508-89.832 38.303-137.09 50.682-20.363 5.339-41.033 10.474-61.838 13.637-19.797 2.993-39.718 4.194-59.616 2.052-21.01-2.256-41.294-8.196-60.739-16.471-19.229-8.185-37.631-18.681-55.103-30.153-44.922-29.553-85.785-66.995-111.953-113.97-12.994-23.318-22.041-49.186-25.885-75.599-3.912-26.797-2.449-54.151 5.714-79.974 13.345-42.169 85.773-124.659 202.182-124.818a246.73 246.73 0 0 1 16.497.522c33.607 2.153 67.168-2.585 98.506-13.966a235.436 235.436 0 0 0 39.457-18.625c46.101-27.24 105.615-56.486 148.133-56.135 40.783.352 83.483 49.402 75.728 108.858-4.15 31.887-25.114 60.397-38.255 89.711-2.449 5.475-4.638 10.973-6.372 16.528"/><path fill="#fff" d="M169.766 158.236s48.459 6.575 71.351 50.399c0 0-2.925-78.149-35.67-98.599"/><path fill="#fff" d="M135.876 178.199c75.043 0 135.877-39.892 135.877-89.1C271.753 39.891 210.919 0 135.876 0 60.834 0 0 39.891 0 89.1c0 49.207 60.834 89.099 135.876 89.099"/><path fill="#F9CDE0" d="M661.389 265.835c-13.334-12.106-29.751-10.19-32.087-9.873-5.204.453-21.055 2.483-33.561 15.054-7.461 7.504-10.601 15.621-11.293 17.457-1.916 5.158-2.426 9.409-3.004 18.092a485.353 485.353 0 0 0-1.055 31.661c.023 1.213 0 2.947-.091 5.021-.476 10.055-.385 19.407-5.442 25.563-4.773 5.804-13.096 10.44-27.427 10.95-40.919 1.462-27.03-45.286-27.03-45.286 43.742-89.746 31.225-183.651-21.429-226.648-35.092-28.668-80.966-28.974-88.653-28.929-7.608.045-75.898 1.632-114.913 55.704-34.615 47.984-32.449 118.266 7.177 172.757-22.687 1.701-45.375 3.39-68.062 5.102 14.059-22.876 15.896-47.769 5.487-61.871-6.689-9.069-16.667-13.569-16.667-13.569-3.526-1.587-11.202-5.045-20.783-3.412-9.592 1.644-16.304 7.549-19.807 10.633-2.155 1.904-4.218 4.137-4.218 4.137a58.836 58.836 0 0 0-5.851 7.471s22.722-2.732 29.219 6.257c6.496 9.001-2.914 21.334-2.914 21.334s-55.523 63.945-23.051 121.406c23.334 41.308 65.319 33.951 87.066 26.56.057.136.113.272.17.397 5.771 13.172 18.742 22.048 33.459 22.955 3.311.385 6.474.566 9.501.566.511 0 .998 0 1.486-.022.986 0 1.961-.057 2.914-.114l1.428-.102c.941-.079 1.871-.17 2.789-.283.397-.045.783-.102 1.168-.147 6.395-.919 12.064-2.698 17.087-5.09.453-.216.896-.431 1.338-.646a57.222 57.222 0 0 0 6.746-4.024c.227-.148.453-.307.669-.465.385-.272.748-.544 1.122-.805.238-.193.477-.363.715-.556a59.364 59.364 0 0 0 3.628-3.026c.295-.272.578-.522.873-.794.34-.328.669-.635.998-.952a64.401 64.401 0 0 0 3.446-3.627c.295-.329.59-.681.873-1.021a50.761 50.761 0 0 0 1.894-2.312c.397-.51.794-1.043 1.168-1.553.34-.454.669-.918.986-1.372.227-.328.454-.646.669-.975.182-.26.352-.51.522-.782a50 50 0 0 0 .907-1.394c.238-.374.465-.748.691-1.111.159-.261.318-.51.465-.771.182-.306.352-.601.522-.895l.204-.34c.453-.805.896-1.587 1.304-2.37.113-.215.238-.442.351-.657 0-.034.034-.057.034-.079.091.238.182.476.272.736.091.238.182.477.272.726a53.41 53.41 0 0 0 4.468 8.966c.181.295.374.59.567.896.192.295.385.589.601.896.192.294.396.6.634.906a48.556 48.556 0 0 0 3.334 4.183c.249.284.51.567.771.85.034.035.057.08.091.103a48.164 48.164 0 0 0 3.106 3.072c.193.17.374.34.567.498.216.204.454.386.68.59.046.034.091.079.148.113.351.306.726.601 1.1.884.045.046.09.091.147.114.386.306.782.612 1.191.907.022.022.034.034.056.034.397.306.817.6 1.236.884.51.34 1.021.691 1.542 1.02 14.377 9.091 28.731 7.98 32.915 7.504a149.86 149.86 0 0 0 2.551-.329c.839-.113 1.655-.249 2.483-.385.125 0 .249-.034.374-.057.748-.124 1.508-.26 2.245-.385.964-.193 1.905-.385 2.846-.578.59-.136 1.168-.272 1.746-.397l.692-.17a84.09 84.09 0 0 0 1.78-.453c.748-.204 1.474-.397 2.199-.624.692-.204 1.384-.408 2.064-.635.272-.09.533-.17.805-.272.453-.147.918-.306 1.36-.464.624-.216 1.225-.443 1.826-.669.068-.023.125-.046.193-.08a46.155 46.155 0 0 0 1.848-.736c.09-.034.193-.08.283-.125a43.07 43.07 0 0 0 1.678-.726h.023c.578-.26 1.145-.51 1.701-.793.056-.023.124-.046.192-.091.579-.272 1.146-.567 1.712-.861a48.564 48.564 0 0 0 1.713-.919c.068-.034.136-.068.192-.102.499-.272.987-.555 1.463-.838.544-.329 1.066-.647 1.587-.975.51-.329 1.021-.658 1.52-.986.124-.08.249-.159.385-.261.386-.261.748-.51 1.111-.782a56.718 56.718 0 0 0 4.649-3.696c.261-.215.51-.442.748-.669.408-.362.805-.736 1.191-1.111a62.345 62.345 0 0 0 3.503-3.672c.318-.374.624-.737.919-1.1.226-.272.453-.533.657-.805a50.398 50.398 0 0 0 2.392-3.208c.216-.306.42-.612.624-.918l.884.283c11.259 11.019 38.323 34.178 74.333 34.427 3.629.023 9.581-.17 16.792-1.564 28.108-5.43 53.414-24.78 65.83-50.07 8.072-16.449 8.798-31.604 9.093-38.95 1.224-31.604-12.552-55.613-.329-69.137a20.391 20.391 0 0 1 5.703-4.376c12.642-6.382 28.436 3.39 31.713 5.51.227-1.848 2.165-20.87-12.653-34.325zM332.276 424.604c-.113.034-.261.068-.453.114a15.49 15.49 0 0 1-3.946.385c-.136 0-.272 0-.42-.022h-.056c-.238-.023-.476-.046-.726-.08-.215-.034-.453-.056-.68-.091-.284-.056-.59-.124-.885-.204l7.314-.147s-.08.023-.148.034zm30.863-5.611c.192-.374.385-.737.567-1.111.181-.362.362-.725.532-1.088.023-.034.034-.045.034-.068.273-.578.545-1.145.805-1.712l.273-.612c.113-.249.215-.499.328-.748a95.205 95.205 0 0 0 1.882-4.659c.08-.181.137-.363.205-.533.079-.215.147-.43.226-.635.125-.362.25-.702.363-1.042.136-.397.261-.783.374-1.134.08-.249.148-.476.216-.691.113-.363.215-.692.306-.998l.215-.748c.091-.34.182-.635.25-.884l.068-.272a8.53 8.53 0 0 0 .147-.624l-6.769 17.548z"/><path fill="#E8AFCD" d="M627.941 406.229s-26.146 57.042-92.871 50.059c-66.713-6.983-61.997-42.849-61.997-42.849l5.341-12.005s43.527 86.367 149.516 4.795"/><path fill="#F9E2EF" d="M281.833 159.256c6.621-7.98 52.711-61.666 129.391-62.539 62.938-.714 104.923 34.619 114.934 43.529l-16.315-21.13-20.454-17.287-35.307-15.099-42.076-7.822-40.715 5.623-32.223 11.97-28.675 20.643-16.78 18.511-11.78 23.59z"/><path fill="#E8AFCD" d="M167.056 380.395s40.251 58.198 93.302 32.352l.941 16.834-18.016 5.679h-22.405l-17.698-5.679-15.42-10.554-9.252-12.821-8.935-15.79-2.528-10.021z"/><path fill="#E8AFCD" d="M261.299 407.453s22.586 47.951 71.113 19.385l-13.197-6.133-2.234-15.133 28.243-4.138 14.933-14.85s42.563 95.482 120.468 6.518l-3.266 18.806-14.286 21.266-24.513 16.721-28.901 3.332-26.463-7.062-6.168-8.116-8.322-7.697-4.83-7.561-10.488 10.859-13.538 14.295-20.454 7.402-21.27-.748-18.459-5.521-15.114-11.902-4.739-12.05v-10.78l1.463-6.881z"/><path stroke="#E288B3" stroke-linecap="round" stroke-linejoin="round" stroke-width="8" d="M263 431.406c-21.747 7.402-63.732 14.748-87.066-26.56-32.472-57.461 23.051-121.406 23.051-121.406s9.41-12.333 2.914-21.334c-6.497-8.989-29.219-6.257-29.219-6.257a59.699 59.699 0 0 1 5.851-7.471s2.063-2.233 4.218-4.137c3.503-3.084 10.215-8.99 19.807-10.633 9.581-1.633 17.257 1.836 20.783 3.412 3.118 1.394 11.35 5.35 16.667 13.569 11.588 17.854 1.508 41.285 1.508 41.285l-6.247 16.788M470.919 424.321c11.259 11.007 38.323 34.166 74.333 34.427 3.628.023 9.569-.17 16.792-1.564 28.107-5.43 53.414-24.78 65.829-50.071 8.073-16.448 8.81-31.592 9.093-38.949 1.225-31.605-12.551-55.614-.328-69.137a20.377 20.377 0 0 1 5.703-4.376c12.642-6.382 28.436 3.401 31.712 5.509.216-1.847 2.155-20.869-12.664-34.324-13.334-12.107-29.752-10.191-32.087-9.885-5.204.442-21.055 2.482-33.561 15.065-7.461 7.504-10.613 15.621-11.293 17.457-1.916 5.158-2.426 9.409-3.005 18.092a487.343 487.343 0 0 0-1.043 31.661c.012 1.213 0 2.947-.09 5.033-.477 10.055-.386 19.395-5.443 25.562-4.762 5.804-13.095 10.44-27.427 10.962-40.908 1.462-27.03-45.287-27.03-45.287 43.743-89.745 31.225-183.639-21.429-226.647-35.08-28.657-80.954-28.975-88.664-28.918-11.894.08-76.896 1.961-114.913 55.704-29.694 41.977-31.486 99.438-5.113 147.286 0 0 13.163 22.876 12.302 25.472"/><path fill="#C695AC" stroke="#94375E" stroke-miterlimit="10" stroke-width="26" d="M358.615 356.953H253.669c-2.597-.046-6.089.136-8.765 1.281-1.836.782-2.607 1.723-2.925 2.131-4.547 5.77-22.642 36.512-22.642 36.512s-3.901 4.387 5.601 4.501c9.501.124 110.059 0 110.059 0 .374 0 .941 0 1.588-.08 1.167-.147 4.036-.703 6.44-3.809 2.222-2.879 10.941-16.833 22.154-36.025 0 0 4.626-4.5-6.576-4.5z"/><path fill="#C695AC" stroke="#D9548C" stroke-miterlimit="10" stroke-width="16" d="M358.615 356.953H253.669c-2.597-.046-6.089.136-8.765 1.281-1.836.782-2.607 1.723-2.925 2.131-4.547 5.77-22.642 36.512-22.642 36.512s-3.901 4.387 5.601 4.501c9.501.124 110.059 0 110.059 0 .374 0 .941 0 1.588-.08 1.167-.147 4.036-.703 6.44-3.809 2.222-2.879 10.941-16.833 22.154-36.025 0 0 4.626-4.5-6.576-4.5z"/><path fill="#C695AC" stroke="#92385E" stroke-miterlimit="10" stroke-width="10" d="M358.615 356.953H253.669c-2.597-.046-6.089.136-8.765 1.281-1.836.782-2.607 1.723-2.925 2.131-4.547 5.77-22.642 36.512-22.642 36.512s-3.901 4.387 5.601 4.501c9.501.124 110.059 0 110.059 0 .374 0 .941 0 1.588-.08 1.167-.147 4.036-.703 6.44-3.809 2.222-2.879 10.941-16.833 22.154-36.025 0 0 4.626-4.5-6.576-4.5z"/><path fill="#C695AC" d="M358.615 356.953H253.669c-2.597-.046-6.089.136-8.765 1.281-1.836.782-2.607 1.723-2.925 2.131-4.547 5.77-22.642 36.512-22.642 36.512s-3.901 4.387 5.601 4.501c9.501.124 110.059 0 110.059 0 .374 0 .941 0 1.588-.08 1.167-.147 4.036-.703 6.44-3.809 2.222-2.879 10.941-16.833 22.154-36.025 0 0 4.626-4.5-6.576-4.5z"/><path fill="#93375E" stroke="#94375E" stroke-miterlimit="10" stroke-width="26" d="M198.305 312.471h104.946c2.596-.091 6.088.261 8.764 2.562 1.837 1.564 2.608 3.457 2.925 4.262 4.547 11.551 22.643 73.037 22.643 73.037s3.9 8.762-5.601 9.011c-9.502.238-110.06 0-110.06 0-.374 0-.941 0-1.587-.17-1.168-.294-4.037-1.405-6.44-7.617-2.223-5.747-10.942-33.668-22.155-72.062 0 0-4.626-9.012 6.576-9.012z"/><path fill="#C14A7D" stroke="#D9548C" stroke-miterlimit="10" stroke-width="16" d="M198.305 312.471h104.946c2.596-.091 6.088.261 8.764 2.562 1.837 1.564 2.608 3.457 2.925 4.262 4.547 11.551 22.643 73.037 22.643 73.037s3.9 8.762-5.601 9.011c-9.502.238-110.06 0-110.06 0-.374 0-.941 0-1.587-.17-1.168-.294-4.037-1.405-6.44-7.617-2.223-5.747-10.942-33.668-22.155-72.062 0 0-4.626-9.012 6.576-9.012z"/><path fill="#C14A7D" stroke="#92385E" stroke-miterlimit="10" stroke-width="10" d="M198.305 312.471h104.946c2.596-.091 6.088.261 8.764 2.562 1.837 1.564 2.608 3.457 2.925 4.262 4.547 11.551 22.643 73.037 22.643 73.037s3.9 8.762-5.601 9.011c-9.502.238-110.06 0-110.06 0-.374 0-.941 0-1.587-.17-1.168-.294-4.037-1.405-6.44-7.617-2.223-5.747-10.942-33.668-22.155-72.062 0 0-4.626-9.012 6.576-9.012z"/><path fill="#D9548C" d="M198.305 312.471h104.946c2.596-.091 6.088.261 8.764 2.562 1.837 1.564 2.608 3.457 2.925 4.262 4.547 11.551 22.643 73.037 22.643 73.037s3.9 8.762-5.601 9.011c-9.502.238-110.06 0-110.06 0-.374 0-.941 0-1.587-.17-1.168-.294-4.037-1.405-6.44-7.617-2.223-5.747-10.942-33.668-22.155-72.062 0 0-4.626-9.012 6.576-9.012z"/><path fill="#CA4983" d="M338.376 396.084c0 2.414-1.168 5.112-6.395 5.248-9.501.25-110.07 0-110.07 0-.375 0-.93 0-1.588-.159-1.168-.294-4.036-1.405-6.44-7.629-2.234-5.747-10.953-33.667-22.166-72.061 0 0-4.626-9.012 6.576-9.012h9.944c2.721 22.694 20.068 82.831 127.905 75.02a857.014 857.014 0 0 1 1.429 4.829s.794 1.78.794 3.752z"/><path stroke="#E288B3" stroke-linecap="round" stroke-linejoin="round" stroke-width="8" d="M363.138 419.005c.091.249.182.487.273.748.09.238.181.476.272.725a52.694 52.694 0 0 0 4.478 8.967c.182.295.374.589.567.895.193.295.386.59.601.896.193.295.397.601.635.907a48.499 48.499 0 0 0 3.333 4.183c.25.283.511.566.771.85.034.034.057.079.091.102.25.272.51.544.771.805a49.245 49.245 0 0 0 2.336 2.256c.192.17.374.34.567.498.215.204.453.386.68.59l.147.113c.352.306.726.601 1.1.884a.471.471 0 0 0 .148.114c.385.306.782.612 1.19.907.023.022.034.034.057.034.397.306.816.6 1.236.884.51.34 1.02.691 1.542 1.02 14.376 9.091 28.73 7.98 32.914 7.504.862-.102 1.712-.215 2.551-.328.839-.114 1.656-.25 2.483-.386.125 0 .25-.034.375-.057.748-.124 1.508-.26 2.245-.385.963-.193 1.904-.385 2.845-.578.59-.136 1.168-.272 1.746-.397l.692-.17a82.568 82.568 0 0 0 1.78-.453c.749-.204 1.474-.397 2.2-.624.691-.204 1.383-.408 2.063-.635.272-.09.533-.17.805-.272.454-.147.919-.306 1.361-.464.624-.216 1.224-.443 1.825-.669.068-.023.125-.046.193-.08a45.565 45.565 0 0 0 1.848-.736 3.19 3.19 0 0 0 .284-.125 43.74 43.74 0 0 0 1.678-.726h.022c.567-.249 1.146-.51 1.701-.793.057-.023.125-.045.193-.091.578-.272 1.145-.567 1.712-.861a49.42 49.42 0 0 0 1.712-.919c.068-.034.136-.068.193-.102.499-.272.986-.555 1.462-.838a37.606 37.606 0 0 0 1.588-.975c.51-.329 1.02-.646 1.519-.987a5.83 5.83 0 0 0 .386-.26c.385-.261.748-.51 1.111-.782a56.87 56.87 0 0 0 4.648-3.696c.261-.215.511-.442.749-.669.408-.362.805-.736 1.19-1.111a62.365 62.365 0 0 0 3.504-3.672c.317-.374.623-.737.918-1.1.227-.272.454-.533.658-.805a51.173 51.173 0 0 0 2.392-3.208c.215-.306.419-.612.624-.918.09-.125.17-.261.26-.385.216-.329.42-.647.624-.975.295-.454.567-.918.839-1.372.272-.453.522-.907.771-1.36.238-.42.465-.839.68-1.258.272-.499.522-.998.76-1.497.125-.261.249-.51.363-.759.113-.227.215-.454.329-.692a60.509 60.509 0 0 0 2.188-5.396c.159-.453.317-.895.453-1.349a67.9 67.9 0 0 0 1.826-6.54c.102-.431.193-.851.272-1.259.091-.396.159-.782.238-1.167.295-1.531.522-2.993.714-4.398.034-.273.068-.533.091-.794.034-.215.057-.453.079-.669.046-.363.091-.714.114-1.065.034-.352.068-.692.09-1.032.034-.34.057-.68.08-.997.431-5.997 0-9.908 0-9.908.057-6.28-.431-32.024-20.137-54.31-17.018-19.259-38.107-24.292-44.978-25.641-22.302-5.067-43.108 4.035-50.319 19.724-5.408 11.755-1.61 23.783-.159 27.761 0 0 1.95-18.5 24.355-19.474 22.404-.975 24.025 19.474 24.025 19.474 5.851 46.42-24.025 49.016-24.025 49.016"/><path fill="#F9CDE0" d="M260.143 418.143c.43-10.712 5.193-18.704 5.793-19.69 1.418-1.961 11.168-15.938 6.406-32.693-2.517-8.841-7.925-14.464-10.782-17.026 0 0-8.764-8.275-26.305-14.374 0 0 37.983-27.024 74.277 10.951 0 0 25.805 22.161 8.764 63.299 0 0-1.451 4.783-.85 9.522h-57.303z"/><path fill="#E8AFCD" d="M287.569 433.446h-23.866l-2.88-7.311v-10.781l1.474-6.88s8.186 17.377 25.284 24.984z"/><path stroke="#E288B3" stroke-linecap="round" stroke-linejoin="round" stroke-width="7" d="M332.412 424.571s-.079.022-.147.034c-.114.034-.261.079-.454.113-.771.181-2.222.442-3.946.385-.136 0-.272 0-.419-.022h-.057c-.227-.023-.476-.046-.725-.08-.216-.034-.454-.056-.681-.09a14.642 14.642 0 0 1-.884-.204h-.023a10.7 10.7 0 0 1-2.948-1.247c-.147-.091-.283-.17-.431-.272 0 0-.022 0-.022-.023a5.364 5.364 0 0 1-.59-.442c-.204-.148-.385-.318-.578-.499-5.556-5.192-2.222-16.176-2.222-16.176 17.041-41.149-8.765-63.299-8.765-63.299-36.282-37.975-74.265-10.951-74.265-10.951 17.529 6.088 26.294 14.363 26.294 14.363 2.857 2.573 8.276 8.196 10.782 17.038 4.774 16.754-4.977 30.731-6.395 32.681-.646 1.054-5.839 9.76-5.839 21.232 0 .374 0 .748.023 1.122 0 .363.034.725.045 1.099v.08c.023.272.034.555.068.827.057.714.136 1.44.25 2.165.034.261.068.511.113.749.102.668.238 1.337.386 2.006.056.261.113.51.181.748.113.499.249.986.386 1.474.056.204.113.385.181.578.034.136.079.261.125.385.09.261.17.522.272.794.261.737.544 1.485.861 2.233l.171.397c5.771 13.172 18.742 22.048 33.458 22.955 3.311.385 6.475.567 9.502.567.499 0 .986-.001 1.485-.023.987 0 1.962-.057 2.914-.114l1.429-.102c.941-.079 1.87-.17 2.789-.283.385-.045.782-.091 1.168-.147 6.394-.919 12.063-2.698 17.086-5.09.454-.215.896-.431 1.338-.646a56.924 56.924 0 0 0 6.746-4.024c.227-.148.454-.306.669-.465.386-.272.749-.544 1.123-.805.238-.193.476-.374.714-.556a59.063 59.063 0 0 0 3.628-3.026c.295-.261.579-.522.873-.794.341-.317.681-.634.998-.952a64.423 64.423 0 0 0 3.447-3.627c.306-.34.59-.68.873-1.021a50.076 50.076 0 0 0 1.893-2.312c.397-.51.794-1.032 1.168-1.553.34-.453.669-.918.987-1.372.226-.328.453-.646.669-.975.181-.26.351-.521.521-.782.318-.464.612-.929.907-1.394.238-.374.465-.748.692-1.111.159-.261.317-.51.465-.771.181-.306.351-.601.521-.895l.204-.34c.454-.805.896-1.587 1.304-2.37.125-.226.238-.442.352-.657 0-.034.034-.057.034-.079.193-.386.385-.749.567-1.111.192-.363.363-.726.533-1.088.022-.034.034-.046.034-.069.272-.578.544-1.144.805-1.711l.272-.612c.113-.25.215-.499.329-.748a97.259 97.259 0 0 0 1.882-4.66c.079-.181.136-.362.204-.532.079-.216.147-.431.227-.635.124-.363.249-.703.362-1.043.136-.397.261-.782.374-1.134.08-.249.148-.476.216-.691.113-.363.215-.692.306-.998l.215-.748c.091-.34.182-.635.25-.884l.068-.272c.091-.34.136-.555.147-.623v-.023"/><path fill="#92385E" d="M336.358 268.84c9.888 0 17.903-11.882 17.903-26.538s-8.015-26.537-17.903-26.537c-9.887 0-17.903 11.881-17.903 26.537 0 14.656 8.016 26.538 17.903 26.538M419.487 264.101c9.833-1.037 16.558-13.693 15.02-28.268-1.537-14.575-10.755-25.55-20.588-24.514-9.833 1.037-16.557 13.693-15.02 28.268 1.537 14.575 10.755 25.551 20.588 24.514M381.742 294.188c4.991-.865 8.056-7.223 6.846-14.199-1.21-6.977-6.238-11.931-11.229-11.065-4.991.865-8.057 7.223-6.846 14.199 1.21 6.977 6.238 11.931 11.229 11.065"/><path fill="#F9E2EF" d="M342.118 246.973c3.137 0 5.68-3.563 5.68-7.958s-2.543-7.958-5.68-7.958c-3.137 0-5.68 3.563-5.68 7.958s2.543 7.958 5.68 7.958M412.221 242.556c3.115-.379 5.209-4.223 4.677-8.586-.531-4.363-3.486-7.592-6.6-7.213-3.114.379-5.208 4.223-4.677 8.586.531 4.362 3.486 7.592 6.6 7.213M395.72 112.392c16.697-1.165 29.843-7.708 29.361-14.616-.482-6.907-14.409-11.563-31.106-10.398-16.698 1.164-29.843 7.707-29.361 14.615.482 6.907 14.408 11.563 31.106 10.399"/><path fill="#E288B3" d="M672.421 179.355c0 15.995-12.835 27.704-28.833 27.704-15.998 0-27.439-11.709-27.439-27.704 0-15.995 11.429-28.566 27.439-28.566 16.009 0 28.833 12.56 28.833 28.566M643.52 83.873c0 7.165-5.748 12.402-12.903 12.402-7.154 0-12.279-5.237-12.279-12.402 0-7.164 5.113-12.786 12.279-12.786 7.166 0 12.903 5.622 12.903 12.786M560.332 128.843c0 11.46 9.399 21.662 20.862 21.662s21.86-10.202 21.86-21.662c0-11.461-10.397-21.04-21.86-21.04s-20.862 9.579-20.862 21.04M34.66 339.541c0 15.994 13.119 30.232 29.117 30.232 15.998 0 30.522-14.238 30.522-30.232 0-15.995-14.513-29.371-30.522-29.371-15.998 0-29.116 13.376-29.116 29.371M63.709 244.048c0 7.164 5.873 13.535 13.028 13.535 7.154 0 13.662-6.371 13.662-13.535s-6.497-13.149-13.662-13.149c-7.166 0-13.028 5.985-13.028 13.149M146.829 289.028c0 11.461-9.195 19.849-20.658 19.849-11.463 0-19.649-8.388-19.649-19.849 0-11.46 8.186-20.461 19.649-20.461 11.463 0 20.658 9.001 20.658 20.461"/><path fill="#CA4983" d="M55.058 99.29c-2.744.601-5.578 1.202-8.322 1.633-.26 1.632-.43 3.344-.6 4.976-.171 1.802 0 3.775-.432 5.486-.6 1.973-2.063 3.344-4.206 3.344-2.313 0-4.297-1.972-4.297-4.284 0-2.744.34-5.408.691-8.072 0-.26.091-.51.091-.77-2.914-.17-5.918-.862-5.918-4.467 0-2.312 1.972-4.285 4.285-4.285.941 0 1.973.091 2.914.17.771-3.944 1.633-7.98 2.574-11.925-3.175 0-7.812-.94-7.812-4.976 0-2.313 1.973-4.296 4.297-4.296 1.111 0 2.064.691 3.175.691.861 0 1.712 0 2.483-.09.691-2.495 4.376-15.7 5.487-17.254.862-1.11 2.064-1.802 3.515-1.802 2.313 0 4.286 1.972 4.286 4.285 0 1.541-1.803 6.098-2.313 7.89-.6 1.972-1.11 3.865-1.712 5.838 3.005-.431 6.01-.862 9.014-1.202.862-2.664 1.712-5.407 2.574-8.071.43-1.462 1.202-4.297 2.063-5.407.771-1.032 2.143-1.712 3.436-1.712 2.313 0 4.297 1.972 4.297 4.285 0 1.031-1.803 6.518-3.175 10.554 3.515.09 7.642.77 7.642 4.715 0 2.313-1.973 4.296-4.297 4.296-.692 0-1.463-.17-2.143-.26-1.202-.17-2.483-.17-3.685-.17h-.17a229.49 229.49 0 0 0-2.914 10.893c3.175 0 7.12.17 7.12 4.376 0 2.312-1.972 4.285-4.297 4.285-.861 0-1.712-.09-2.573-.09-.692 0-1.293 0-1.973.09-.692 3.945-1.111 8.071-1.293 12.617-.09 2.493-1.542 4.545-4.297 4.545-2.313 0-4.297-1.972-4.297-4.296 0-3.866.26-7.72.77-11.585l.012.045m-6.87-7.38c2.834-.69 5.748-1.292 8.582-1.711.771-3.696 1.712-7.47 2.914-11.075-3.004.43-5.918.861-8.844 1.292-1.031 3.775-1.893 7.64-2.664 11.495h.011M91.454 81.006c-1.542-4.285-2.313-8.672-2.313-13.127 0-8.922 5.238-22.48 15.873-22.48 1.803 0 3.515.602 5.068 1.463 4.297 2.494 5.919 6.688 5.919 11.495 0 10.122-7.551 17.853-14.332 24.45a69.567 69.567 0 0 0 3.946 6.27c1.293-1.542 2.313-2.914 3.084-3.866 1.372-1.802 2.744-4.115 4.467-5.486.771-.601 1.712-1.032 2.744-1.032 2.313 0 4.297 1.972 4.297 4.296 0 2.324-3.084 5.577-4.467 7.29-1.372 1.71-2.914 3.774-4.637 5.837 1.712 1.712 3.344 3.265 5.669 4.115 1.372.431 2.233.34 3.435 1.292a4.25 4.25 0 0 1 1.542 3.265c0 2.312-1.973 4.296-4.297 4.296-4.297 0-9.445-3.775-12.268-6.609-4.467 4.115-9.444 7.471-14.592 7.471-5.578 0-9.785-3.866-9.785-9.522 0-6.348 5.068-13.558 9.184-17.934.43-.51.941-.94 1.463-1.462v-.023m8.322 14.68c-.26-.34-.431-.602-.692-.942-1.292-1.802-2.494-3.684-3.696-5.577-2.143 2.494-4.036 5.067-5.238 7.98-.51 1.202-.51 2.234-.771 3.515.17.691.691.691 1.292.691 2.574 0 5.919-2.494 9.093-5.668h.012m-1.372-21.46c4.717-4.806 9.014-10.213 9.014-15.87 0-1.462-.34-4.375-2.404-4.375-4.717 0-7.302 9.783-7.302 13.898 0 2.233.261 4.285.692 6.348M160.628 76.89c0 2.313-1.973 4.297-4.297 4.297-.862 0-1.712-.26-2.404-.771-2.834.6-7.211 6.178-8.073 8.842 1.973-1.542 3.697-3.265 5.488-4.977.862-.861 1.894-1.893 2.914-2.493.692-.34 1.372-.601 2.143-.601 2.834 0 4.807 2.913 5.748 5.237.692 1.632.941 3.514 2.404 4.716 1.202-.431 2.313-2.143 3.005-3.174 3.095-4.897 4.637-9.092 4.637-14.93 0-1.893-.431-3.774-1.633-5.316-2.143-2.834-9.093-4.897-12.528-4.897-8.073 0-18.198 7.38-22.314 14.068-2.313 3.774-3.696 8.32-3.696 12.786 0 5.487 4.376 12.447 8.844 15.53 2.573 1.803 5.669 2.914 8.753 2.914 2.573 0 5.147-.51 7.472-1.463 1.462-.51 2.913-1.541 4.467-1.541 2.313 0 4.297 1.972 4.297 4.296 0 1.111-.51 2.233-1.293 3.004-.691.771-1.712 1.111-2.664 1.542-3.866 1.711-7.982 2.743-12.279 2.743-9.524 0-17.257-5.917-22.053-13.728-2.404-3.945-4.116-8.581-4.116-13.297 0-5.838 1.712-11.925 4.717-16.901 5.748-9.443 18.538-18.534 29.865-18.534 3.866 0 7.642.94 11.156 2.494 7.291 3.264 11.588 7.98 11.588 16.3 0 6.519-1.633 12.277-4.978 17.854-2.664 4.546-6.009 8.922-11.757 8.922-4.037 0-7.291-3.945-8.753-7.38-3.005 2.834-7.381 6.87-11.758 6.87-3.946 0-6.689-3.605-6.689-7.38 0-2.494.6-4.977 1.632-7.29 2.483-5.486 9.524-12.877 15.964-12.877 2.914 0 6.18 1.973 6.18 5.147l.011-.011M184.064 51.317c.771-1.292 2.142-2.142 3.696-2.142 2.313 0 4.297 1.972 4.297 4.296 0 1.972-.51 3.865-.692 5.838-.26 3.265-.26 6.609-.26 9.873 0 4.296.09 8.672.17 12.957.09 2.142.17 4.206.17 6.348 0 2.313-1.973 4.285-4.297 4.285-1.633 0-3.175-1.032-3.867-2.494-.17-.43-.34-.77-.431-1.202-.34-2.063-.09-4.296-.17-6.438-.09-4.376-.17-8.842-.17-13.218 0-3.514.091-15.62 1.542-18.103zm-.771 53.29c0-2.834 1.111-5.487 4.376-5.487 2.313 0 4.297 1.972 4.297 4.296v2.664c0 2.313-1.973 4.285-4.297 4.285-3.435 0-4.376-2.834-4.376-5.747zM207.919 54.843c.34-.091.771-.17 1.111-.17.941 0 1.803.34 2.665.77 3.515 1.712 5.748 5.067 5.748 9.012 0 7.98-6.61 18.103-15.272 18.103-4.547 0-8.413-3.264-8.413-7.89 0-6.687 5.317-19.996 12.699-19.996.51 0 1.031.091 1.462.17m.17 8.41c-.261.091-.51.091-.771.091h-.261c-2.403 2.313-4.467 7.29-4.716 10.645h.09c3.776-.941 6.441-6.008 6.441-9.692 0-.431-.341-.692-.771-1.032l-.012-.011m-3.866 39.642c3.685-13.988 10.125-26.435 16.996-39.04.771-1.463 3.175-6.349 4.116-7.21.861-.77 1.802-1.292 3.004-1.292 2.313 0 4.286 1.972 4.286 4.296 0 1.893-2.143 5.067-3.084 6.779-7.211 13.127-14.161 26.514-17.676 41.194-.692 3.004-.771 6.609-4.808 6.609-2.313 0-4.297-1.973-4.297-4.285 0-2.313.862-4.807 1.463-7.04zm19.309-13.558c1.202-1.802 2.404-3.434 4.716-3.434 1.202 0 2.313.51 3.096 1.371 1.202.09 2.404.692 3.435 1.293 3.946 2.233 7.722 6.087 7.722 10.893 0 6.87-7.041 15.53-14.253 15.53-4.036 0-7.551-2.312-8.753-6.178-.51-1.541-.51-3.174-.51-4.715 0-4.886 1.894-10.724 4.547-14.76m6.27 6.269c-1.372 2.743-2.234 6.269-2.234 9.273 0 .26 0 1.541.51 1.541 2.234 0 5.84-4.545 5.84-6.608 0-1.803-2.665-3.435-4.116-4.206"/><path fill="#E288B3" d="M501.476 175.739c2.403 6.416 1.054 13.478-3.379 15.144-4.433 1.667-9.264-3.083-11.667-9.51-2.404-6.416-1.848-13.037 2.596-14.703 4.445-1.666 10.057 2.641 12.461 9.057zM510.523 154.801c1.542 4.127-.929 8.65-4.592 10.021-3.662 1.372-7.653-.737-9.195-4.851-1.542-4.115.193-8.037 3.855-9.409 3.662-1.372 8.402.113 9.944 4.239zM478.549 153.135c-.986-4.285.408-8.456 3.708-9.216 3.299-.759 7.097 2.211 8.084 6.507.986 4.296-1.225 8.241-4.513 9-3.288.76-6.281-2.006-7.279-6.291M287.717 174.594c-.578 4.364.851 8.354 4.139 8.796 3.288.442 6.621-2.924 7.211-7.277.578-4.365-1.724-8.797-5.012-9.228-3.288-.43-5.748 3.356-6.338 7.72zM310.042 159.37c0-3.843-2.426-6.802-4.955-6.802-2.528 0-4.308 2.959-4.308 6.802 0 3.843 1.78 7.141 4.308 7.141 2.529 0 4.955-3.298 4.955-7.141"/><path fill="#F9CDE0" d="M52.246 318.49c-.204.08-.136.374.08.352 5.43-.579 24.298-1.236 30.42 16.504.136.307.76 1.633 2.166 2.086.294.091.963.318 1.723.046.918-.329 1.315-1.157 1.383-1.304.51-1.122.148-2.596.148-2.596s-7.96-25.687-35.92-15.099v.011M658.407 160.107c.204.079.136.374-.08.351-5.431-.578-24.297-1.236-30.42 16.505-.136.306-.76 1.632-2.166 2.086-.294.09-.963.317-1.723.045-.918-.329-1.315-1.156-1.383-1.304-.51-1.122-.148-2.595-.148-2.595s7.96-25.687 35.92-15.1zM589.369 114.299c.136.045.091.249-.057.226-3.56-.374-15.907-.804-19.909 10.803-.091.193-.499 1.066-1.418 1.372-.192.068-.635.204-1.133.023-.601-.216-.862-.76-.907-.85-.341-.737-.091-1.701-.091-1.701s5.204-16.811 23.515-9.885zM636.172 74.714c.08.034.057.159-.034.148-2.267-.239-10.136-.522-12.698 6.892-.057.124-.318.68-.907.872-.125.046-.409.136-.715.012-.385-.136-.544-.488-.578-.544-.215-.465-.057-1.088-.057-1.088s3.322-10.724 14.989-6.303v.011M121.341 273.85c-.113.045-.079.204.045.193 2.96-.318 13.255-.669 16.588 9 .068.17.408.884 1.179 1.145.159.057.533.17.941.023.499-.182.715-.635.749-.703.283-.612.079-1.417.079-1.417s-4.342-14.011-19.592-8.23zM72.53 235.954c-.08.034-.057.148.034.136 2.098-.226 9.4-.476 11.769 6.382.057.114.295.635.839.805.113.034.374.125.669.012.351-.125.51-.454.533-.499.204-.431.057-1.009.057-1.009s-3.073-9.93-13.89-5.838z"/></g><defs><clipPath id="a"><path fill="#fff" d="M0 0h713v592H0z"/></clipPath></defs></svg>