<?xml version="1.0" encoding="UTF-8"?><svg id="Warstwa_2" xmlns="http://www.w3.org/2000/svg" viewBox="0 0 655.85 609.7"><defs><style>.cls-1{fill:#92385e;}.cls-2,.cls-3,.cls-4,.cls-5,.cls-6,.cls-7,.cls-8{fill:none;}.cls-2,.cls-3,.cls-5,.cls-9,.cls-8{stroke-miterlimit:10;}.cls-2,.cls-5{stroke:#94375e;}.cls-2,.cls-6{stroke-width:8px;}.cls-10,.cls-9{fill:#fff;}.cls-11{fill:#6c2946;}.cls-12{fill:#ece6ae;}.cls-3{stroke:#6c2946;}.cls-3,.cls-8{stroke-width:2px;}.cls-13{fill:#c7dbcc;}.cls-4{stroke-width:7px;}.cls-4,.cls-6{stroke:#e288b3;stroke-linecap:round;stroke-linejoin:round;}.cls-5{stroke-width:9px;}.cls-14{fill:#e288b3;}.cls-15{fill:#e8afcd;}.cls-16{fill:#8bbbc7;}.cls-17{fill:#d6c1cc;}.cls-18{fill:#f9e2ef;}.cls-19{fill:#f9cde0;}.cls-20{fill:#d9548c;}.cls-21{fill:#d07874;}.cls-22{fill:#4d404e;}.cls-23{fill:#92c5d3;}.cls-9{stroke:#eb5c9b;stroke-width:6px;}.cls-24{fill:#f5aca5;}.cls-8{stroke:#542137;}.cls-25{fill:#542137;}</style></defs><path class="cls-19" d="m157.52,128.73c-64.9,46.32-97.6,103.86-112.07,127.51C17.44,302.04-2.49,345.11,2.71,398.65c4.83,49.72,45.63,97.02,95.56,98.21,21.73.51,42.98-7.16,64.71-6.98,69.56.6,112.78,76,175.68,105.69,72.5,34.22,160.35,1.72,222.51-48.88,39.54-32.18,74.36-73.82,84.59-123.76,10.22-49.93-10.39-108.46-56.62-129.93-41.66-19.35-102.94-12.49-121.22-54.62-11.87-27.35,13.99-42.35,9.7-94.2-3.75-45.43-30.19-98.57-70.77-111.71-23.64-7.66-46.7-3.2-61.7.05-30.51,6.62-50.69,20.95-63.2,29.41-66.45,44.95-74.69,31.29-124.44,66.79h0Z"/><path class="cls-22" d="m65.77,440.04C28.68,388.69-12.18,332.13,3.41,261.35c11.22-50.93,48.75-95.95,93.96-115.4,42.11-18.12,87.72-12.7,122.25-8.6,58.19,6.91,80.77,26.05,104.56,9.5,22.06-15.36,29.62-43.77,40.53-68.33,14.05-31.62,38.8-61.5,72.67-68.55,42.56-8.86,84.81,21.73,106.55,59.39,21.74,37.65,28.75,81.7,41.35,123.3,18.02,59.49,47.95,115.11,62.64,175.51,14.7,60.39,11.33,130.38-30.31,176.53-32.79,36.33-84.42,51.51-133.29,49.02-48.87-2.51-95.59-20.74-139.43-42.5-35.06-17.39-70.67-37.65-109.8-38.49-25.99-.56-78.83,1.04-102.36-10.05-30.27-14.26-47.58-35.82-66.96-62.65h0Z"/><path class="cls-19" d="m561.83,451.19c-.22,9.01-.36,13.71-2.2,19.5-.73,2.3-1.73,4.8-2.27,6.15-1.29,3.21-2.64,6.15-3.97,8.82-1.97,4.15-4.68,9.59-8.17,15.83-2.36,4.22-5.19,9.27-8.94,14.81-1.87,2.76-4.91,7.22-9.36,12.43-2.73,3.19-5.99,6.67-9.82,10.22-5.17,4.79-12.58,10.8-22.43,16.41-4.37,2.51-20.22,11.09-41.68,10.94-5.26-.03-10.85-.58-16.7-1.88-20.25-4.5-33.77-15.74-40.76-22.93-1.76-1.81-3.11-3.36-4.05-4.49-.06-.07-.11-.14-.17-.21.53.14,1.09.27,1.67.41,7.69,1.78,19.78,3.33,33.53-.22,5.03-1.3,9.38-3.05,13.02-4.85,4.33-5.29,7.6-8.77,9.97-11.09.33-.32.64-.62.94-.9.69-.66,2.73-2.57,4.95-5.42,2.1-2.7,3.75-5.47,5.06-8.23,2.06-4.4,3.22-8.79,3.79-12.91.25-1.72.39-3.4.45-5.01.07-2,.03-3.9-.09-5.65-.34-5.05-1.32-8.89-1.82-10.6-.07-.26-.14-.46-.19-.62-.03-.15-.09-.39-.14-.72-.07-.33-.14-.75-.22-1.26h0c-.16-1.02-.33-2.36-.45-3.95-.02-.28-.04-.58-.05-.88h0c-.04-.48-.06-.97-.08-1.48-.06-2.31,0-4.99.34-7.9.44-3.86,1.35-8.13,3.06-12.51.18-.46.38-.91.57-1.37.18-.45.39-.88.59-1.33.01-.04.03-.06.04-.1.16-.33.31-.66.48-.98.41-.85.86-1.68,1.35-2.51.01-.01.01-.03.02-.04.16-.31.33-.6.51-.88.46-.77.95-1.53,1.48-2.29.19-.29.39-.57.6-.84.39-.56.8-1.1,1.23-1.64.17-.22.33-.43.51-.64.11-.14.23-.28.35-.42.23-.28.48-.57.74-.86.08-.08.14-.16.23-.24h0c.62-.71,1.29-1.42,1.97-2.12.14-.13.28-.27.42-.41,4.53-4.42,9.84-7.95,15.63-10.51.11-.05.22-.1.32-.14,5.33-2.32,11.06-3.82,16.95-4.45,1.89-.21,3.8-.32,5.71-.33,3.9-.06,7.83.28,11.74,1.02,1.63.29,3.27.67,4.89,1.11,4,.87,7.77,1.89,11.33,3.02.51.17,1.01.33,1.5.5.66.22,1.31.46,1.96.69,1.31.45,2.57.95,3.81,1.44.61.25,1.22.51,1.84.77,1.2.51,2.39,1.04,3.54,1.59,0,0,1.14.38,1.47.71.35.34.41,1.15-.45,3.07-.24.53-.54,1.15-.93,1.86.24.31.48.64.74,1,1.99,2.79,4.32,6.93,5.38,12.28.47,2.35.4,5.31.26,11.23h0Z"/><path class="cls-15" d="m526.92,528.73c-2.73,3.19-5.99,6.67-9.82,10.22-5.17,4.79-12.58,10.8-22.43,16.41-4.37,2.51-20.22,11.09-41.68,10.94-5.62.06-11.64-.48-17.96-1.88-19.96-4.43-33.37-15.41-40.46-22.62.35-.12.67-.22.96-.31,1.08-.34,1.74-.55,1.74-.55.52,0,54.03,28.76,124-9.28,1.19-.64,2.32-1.25,3.41-1.8.77-.4,1.52-.78,2.24-1.13h0Z"/><path class="cls-4" d="m559.53,456.13c-.18,3.16-.48,8.04-2.21,13.95-.21.7-.18.56-2.56,7.66-2.24,6.7-2.34,7.07-2.63,7.92-1.3,3.73-2.99,6.56-8.17,15.83-2.36,4.22-5.19,9.27-8.94,14.81-2.01,2.96-5.36,7.86-10.34,13.56-2.53,2.88-5.46,5.96-8.85,9.09-5.17,4.79-12.57,10.8-22.43,16.41-4.28,2.46-19.58,10.75-40.41,10.94-5.62.06-11.64-.48-17.96-1.88-19.96-4.43-33.37-15.41-40.46-22.62h-.01c-2.02-2.06-3.53-3.81-4.52-5.01.47.07.95.14,1.44.21s.99.14,1.5.2c8.83,1.11,20.22,1.41,33.02-1.24,4.99-1.04,9.51-2.38,13.53-3.83,10.3-4.57,12.56-7.15,12.26-8.68-.21-1.07-1.64-1.5-2.29-2.41-.18-.25-.3-.54-.32-.9-.1-1.59,2.14-1.82,4.95-5.42,2.09-2.7,3.75-5.47,5.05-8.23,2.07-4.4,3.23-8.79,3.8-12.91.25-1.72.39-3.4.44-5.01.08-2,.03-3.9-.08-5.65-.35-5.05-1.33-8.89-1.82-10.6-.08-.26-.14-.46-.2-.62-.03-.15-.08-.39-.14-.72s-.14-.75-.21-1.26h0c-.16-1.02-.33-2.36-.45-3.95-.02-.28-.05-.58-.06-.88h0c-.03-.48-.05-.97-.07-1.48-.07-2.31,0-4.99.33-7.9.44-3.86,1.36-8.13,3.07-12.51.18-.46.38-.91.57-1.37.18-.45.39-.88.59-1.33,0-.04.02-.06.03-.1.16-.33.32-.66.49-.98.41-.85.86-1.68,1.34-2.51.01-.01.01-.03.02-.04.17-.31.34-.6.52-.88.45-.77.95-1.53,1.47-2.29.2-.29.39-.57.61-.84.38-.56.79-1.1,1.22-1.64.18-.22.34-.43.52-.64.11-.14.23-.28.34-.42.24-.28.49-.57.75-.86.07-.08.14-.16.22-.24h0c.63-.71,1.29-1.42,1.97-2.12.14-.13.28-.27.42-.41,4.53-4.42,9.85-7.95,15.64-10.51.11-.05.21-.1.32-.14,5.33-2.32,11.05-3.82,16.95-4.45,2.31-.25,4.63-.36,6.97-.33,3.49.03,6.99.37,10.47,1.02,1.64.29,3.27.67,4.9,1.11,3.99.87,7.77,1.89,11.33,3.02.51.17,1,.33,1.5.5.65.22,1.31.46,1.96.69,1.31.45,2.57.95,3.8,1.44.62.25,1.23.51,1.84.77,1.21.51,2.39,1.04,3.55,1.59,0,0,1.3.61,1.47.71.44.23.82,1,.81,3.07,0,.76-.06,1.7-.19,2.86-.06.55-.14,1.15-.23,1.81,1.18,3.57,2.37,8.08,3.06,13.36.79,6.02.65,10.82.51,13.28h0Z"/><ellipse class="cls-19" cx="342.96" cy="215.42" rx="102.26" ry="208.34"/><path class="cls-19" d="m342.82,4.04c-.32-.01-.62-.01-.91-.02-.18,0-.35-.01-.52-.01-.24,0-.46,0-.67,0h-1.61c-.53,0-1.14,0-1.83,0-.14.01-.29.01-.43.01-.15,0-.29.01-.45.01-.15,0-.3.01-.46.01-.42.01-.86.02-1.32.04-.55.02-1.13.04-1.74.07-.29.01-.58.03-.88.04-.68.04-1.37.07-2.11.12-.24.02-.49.03-.74.05-.44.03-.89.06-1.36.1-.37.03-.74.06-1.13.09-1.09.09-2.23.2-3.41.32-1.74.18-3.57.4-5.49.66-1.84.25-3.76.54-5.74.88-.99.17-2,.35-3.03.55-1.47.28-2.98.58-4.51.91-.16.04-.32.07-.48.11-1.51.33-3.04.69-4.6,1.08-8.81,2.21-18.33,5.38-27.81,9.92-1.14.54-2.27,1.1-3.4,1.69,0,0-10.75,5.55-20.96,13.66-32.96,26.18-48.01,65.95-48.01,65.95-17.19,45.43-7.01,85.95-1.37,108.42,7.13,28.41,18.57,49.91,26.91,63.33,10.65,17.05,11.5,35.14,3.22,43.39-5.86,5.84-14.75,5.24-31.56,4.1,0,0-19-1.25-27.25-9.81-.53-.55-1.03-1.11-1.5-1.68-.18-.22-.36-.45-.53-.67-.33-.46-.65-.93-.94-1.42-.14-.24-.28-.49-.42-.74s-.26-.5-.39-.76c-.12-.26-.24-.52-.36-.78-.23-.53-.44-1.07-.63-1.62-.11-.32-.21-.64-.31-.96-.15-.52-.3-1.05-.43-1.59-.13-.53-.25-1.08-.36-1.64-.16-.83-.3-1.69-.42-2.56s-.22-1.75-.3-2.65c-.17-1.81-.28-3.67-.37-5.58-.06-1.27-.11-2.56-.17-3.87-.02-.65-.05-1.31-.08-1.97,0-.2-.02-.39-.03-.59v-.03c0-.38-.03-.75-.04-1.1v-.07c-.04-1.39-.04-2.58-.03-3.48,0-7.61-.18-14.52-.42-20.62-.02-.49-.04-.97-.07-1.45-.04-.96-.08-1.9-.13-2.81-.02-.46-.04-.91-.07-1.36-.06-1.26-.13-2.48-.2-3.66-.06-1.14-.13-2.24-.2-3.3-.07-1.12-.15-2.17-.23-3.16,0-.04,0-.07,0-.11-.08-.98-.15-1.9-.24-2.78l-.06-.66c-.08-.84-.17-1.63-.27-2.39-.05-.45-.11-.88-.18-1.31-.12-.82-.25-1.6-.41-2.37-.15-.76-.32-1.5-.51-2.23-.1-.4-.21-.81-.34-1.21-.26-.91-.56-1.82-.91-2.75-.11-.3-.29-.77-.54-1.37-.1-.24-.21-.49-.33-.77-.06-.14-.12-.29-.2-.44-.12-.3-.27-.61-.42-.94,0,0,0,0,0,0-.15-.33-.32-.68-.5-1.04-.1-.19-.19-.38-.3-.57-.39-.76-.83-1.58-1.33-2.44-.13-.22-.25-.43-.39-.65-.26-.44-.54-.89-.84-1.35-.14-.23-.3-.46-.45-.69-.62-.93-1.29-1.89-2.04-2.87-.37-.48-.75-.98-1.16-1.47-1.01-1.23-2.12-2.48-3.34-3.71-2.05-2.06-4.18-3.85-6.34-5.41-1.3-.93-2.61-1.78-3.92-2.55-1.74-1.03-3.49-1.93-5.19-2.7-.86-.39-1.71-.75-2.54-1.08-7.53-2.99-14.13-3.79-17.2-4.05-1.61-.22-9.69-1.17-19.01,1.88-1.6.52-3.23,1.16-4.87,1.94h-.01c-.65.31-1.31.64-1.96,1-2.64,1.43-5.27,3.25-7.8,5.54-5.93,5.38-9.3,11.61-11.18,17.37-.07.19-.13.38-.18.57-.42,1.32-.76,2.61-1.03,3.86-.12.54-.22,1.08-.32,1.6-.72,3.95-.82,7.36-.75,9.65,0,.23,0,.45.02.66,0,.22.02.43.03.63,0,.17.02.34.03.49,0,.09,0,.17.02.26.02.21.04.4.05.55,0,.1.02.19.03.26,0,.04,0,.07,0,.1.41-.26,1-.64,1.75-1.09.3-.18.63-.37.98-.57.34-.19.72-.4,1.11-.62.99-.53,2.11-1.11,3.34-1.68.24-.11.49-.22.75-.34.5-.22,1.03-.45,1.57-.67.81-.33,1.65-.65,2.52-.95.87-.3,1.76-.58,2.68-.83.61-.17,1.23-.33,1.86-.47s1.27-.26,1.91-.37c.64-.11,1.29-.19,1.94-.26,4.27-.45,8.72,0,12.84,2.07.78.4,3.49,1.83,5.98,4.59,1.5,1.66,2.63,3.47,3.45,5.42.28.65.52,1.32.72,2,.21.69.39,1.39.54,2.1.09.41.16.83.22,1.25.96,5.95.12,12.94-1.16,20.86-.08.5-.16,1.01-.25,1.52-.16,1.03-.34,2.07-.52,3.12-.26,1.59-.54,3.2-.81,4.85-.17,1.1-.35,2.22-.53,3.34-.26,1.7-.51,3.42-.74,5.18-.94,7.12-1.57,14.75-1.26,22.87.3,7.71,1.07,23.6,9.53,40.85,4.47,9.12,10.54,17.49,17.78,24.8.65.66,1.32,1.32,2,1.97s1.37,1.29,2.06,1.91c1.4,1.26,2.82,2.48,4.28,3.65,12.42,10.01,27.24,17.16,42.9,20.18,7.58,1.46,13.8,1.66,17.61,1.64,36.33-.19,71.32-30.25,77.94-36.11L342.82,4.04Z"/><path class="cls-19" d="m624.65,233.08c0,.23-.01.45-.02.66-.01.22-.02.43-.03.63,0,.17-.02.34-.03.49-.01.09-.01.17-.02.26-.02.21-.04.4-.05.55,0,.1-.02.19-.03.26,0,.04-.01.07-.01.1-.41-.26-1-.64-1.75-1.09-.15-.09-.31-.18-.47-.28-.16-.09-.34-.19-.51-.29-.34-.19-.72-.4-1.11-.62-.99-.53-2.11-1.11-3.34-1.68-.24-.11-.49-.22-.75-.34-.5-.22-1.03-.45-1.57-.67-.81-.33-1.65-.65-2.52-.95s-1.76-.58-2.68-.83c-.61-.17-1.23-.33-1.86-.47s-1.27-.26-1.91-.37-1.29-.19-1.94-.26c-1.37-.14-2.76-.2-4.14-.13-2.95.13-5.9.79-8.7,2.2-.78.4-3.49,1.83-5.98,4.59-1.5,1.66-2.63,3.47-3.45,5.42-.28.65-.52,1.32-.72,2-.21.69-.39,1.39-.54,2.1-.09.41-.16.83-.22,1.25-.06.38-.11.75-.16,1.14-.69,5.7.12,12.3,1.32,19.72.08.5.16,1.01.25,1.52.16,1.03.34,2.07.52,3.12.26,1.59.54,3.2.81,4.85.17,1.1.35,2.22.53,3.34.26,1.7.51,3.42.74,5.18.94,7.12,1.57,14.75,1.26,22.87-.3,7.71-1.07,23.6-9.53,40.85-1.51,3.08-3.2,6.07-5.06,8.97-3.64,5.68-7.93,10.99-12.72,15.83-.65.66-1.32,1.32-2,1.97s-1.37,1.29-2.06,1.91c-1.4,1.26-2.82,2.48-4.28,3.65-12.42,10.01-27.24,17.16-42.9,20.18-7.58,1.46-13.8,1.66-17.61,1.64-.1,0-.21,0-.31-.01h-.19c-34.08-.43-66.88-26.96-76.04-34.88-.56-.48-1.02-.89-1.4-1.22l-26.5-145.07-4.72-25.82-2.02-11.08-2.44-13.36-25.31-138.52-2.44-13.36-1.39-7.6-.78-4.26-.57-3.13c.32-.01.62-.01.91-.02.18,0,.35-.01.52-.01s.32,0,.47,0h1.81c.53,0,1.14,0,1.83,0,.14.01.29.01.43.01.15,0,.29.01.45.01.15,0,.3.01.46.01.42.01.86.02,1.32.04.55.02,1.13.04,1.74.07.29.01.58.03.88.04.68.04,1.37.07,2.11.12.24.02.49.03.74.05.44.03.89.06,1.36.1.37.03.74.06,1.13.09,1.09.09,2.23.2,3.41.32,1.74.18,3.57.4,5.49.66,1.84.25,3.76.54,5.74.88.99.17,2,.35,3.03.55,1.47.28,2.98.58,4.51.91.16.04.32.07.48.11.6.13,1.2.27,1.81.41.01,0,.02.01.02.01.91.2,1.84.43,2.77.66,8.81,2.21,18.33,5.38,27.81,9.92,1.14.54,2.27,1.1,3.4,1.69,0,0,10.76,5.55,20.96,13.66,32.96,26.18,48.01,65.95,48.01,65.95,17.19,45.43,7.01,85.95,1.37,108.42-7.13,28.41-18.57,49.91-26.91,63.33-10.64,17.05-11.5,35.14-3.22,43.39,3.51,3.49,8.09,4.68,14.81,4.84h.15c4.48.08,9.92-.29,16.6-.74,0,0,19-1.25,27.25-9.81.53-.55,1.03-1.11,1.5-1.68.18-.22.36-.45.53-.67.33-.46.65-.93.94-1.42.14-.24.28-.49.42-.74s.26-.5.39-.76c.12-.26.24-.52.36-.78.23-.53.44-1.07.63-1.62.11-.32.21-.64.31-.96.15-.52.3-1.05.43-1.59.13-.53.25-1.08.36-1.64.16-.83.3-1.69.42-2.56s.22-1.75.3-2.65c.17-1.81.28-3.67.37-5.58.06-1.27.11-2.56.17-3.87.02-.65.05-1.31.08-1.97,0-.2.02-.39.03-.59v-.03c0-.38.03-.75.04-1.1v-.07c.04-1.39.04-2.58.03-3.48,0-7.61.18-14.52.42-20.62.02-.49.04-.97.07-1.45.04-.96.08-1.9.13-2.81.02-.46.04-.91.07-1.36.06-1.26.13-2.48.2-3.66.06-1.14.13-2.24.2-3.3.07-1.12.15-2.17.23-3.16v-.11c.08-.98.15-1.9.24-2.78.02-.22.04-.44.06-.66.08-.84.17-1.63.27-2.39.05-.45.11-.88.18-1.31.12-.82.25-1.6.41-2.37.15-.76.32-1.5.51-2.23.1-.4.21-.81.34-1.21.26-.91.56-1.82.91-2.75.11-.3.29-.77.54-1.37.1-.24.21-.49.33-.77.06-.14.12-.29.2-.44.12-.3.27-.61.42-.94h0c.15-.34.32-.69.5-1.05.1-.19.19-.38.3-.57.39-.76.83-1.58,1.33-2.44.13-.22.25-.43.39-.65.26-.44.54-.89.84-1.35.14-.23.3-.46.45-.69.62-.93,1.29-1.89,2.04-2.87.37-.48.75-.98,1.16-1.47,1.01-1.23,2.12-2.48,3.34-3.71,2.05-2.06,4.18-3.85,6.34-5.41,1.3-.93,2.61-1.78,3.92-2.55,1.74-1.03,3.49-1.93,5.19-2.7.86-.39,1.71-.75,2.54-1.08,7.53-2.99,14.13-3.79,17.2-4.05.57-.08,1.93-.24,3.86-.29,3.57-.1,9.1.19,15.15,2.17,1.6.52,3.23,1.16,4.87,1.94h.01c.65.31,1.31.64,1.96,1,2.64,1.43,5.27,3.25,7.8,5.54,5.93,5.38,9.3,11.61,11.18,17.37.07.19.13.38.18.57.42,1.32.76,2.61,1.03,3.86.12.54.22,1.08.32,1.6.72,3.95.82,7.36.75,9.65h.01Z"/><g><path class="cls-15" d="m585.57,307.35c-.3,7.71-1.07,23.6-9.53,40.85-1.51,3.08-3.2,6.07-5.06,8.97l-2.52.27-8.82.94s-36.24-41.27-14.79-30.38c1.82.93,3.47.82,3.62.85,3.8.83,13.21-5.74,18.68-17.53,6.84-14.75,3.98-30.28,4.43-52.43.04-1.93.17-6.6,1.95-12.24.59-1.86,1.2-3.33,1.62-4.27,1,.7,2.01,1.4,3.01,2.1l1.98,2.27c-.69,5.7.12,12.3,1.32,19.72.08.5.16,1.01.25,1.52.16,1.03.34,2.07.52,3.12.26,1.59.54,3.2.81,4.85.17,1.1.35,2.22.53,3.34.26,1.7.51,3.42.74,5.18.94,7.12,1.57,14.75,1.26,22.87h0Z"/><path class="cls-15" d="m104.42,307.35c.3,7.71,1.07,23.6,9.53,40.85,1.51,3.08,3.2,6.07,5.06,8.97l2.52.27,8.82.94s36.24-41.27,14.79-30.38c-1.82.93-3.47.82-3.62.85-3.8.83-13.21-5.74-18.68-17.53-6.84-14.75-3.98-30.28-4.43-52.43-.04-1.93-.17-6.6-1.95-12.24-.59-1.86-1.2-3.33-1.62-4.27-1,.7-2.01,1.4-3.01,2.1l-1.98,2.27c.69,5.7-.12,12.3-1.32,19.72-.08.5-.16,1.01-.25,1.52-.16,1.03-.34,2.07-.52,3.12-.26,1.59-.54,3.2-.81,4.85-.17,1.1-.35,2.22-.53,3.34-.26,1.7-.51,3.42-.74,5.18-.94,7.12-1.57,14.75-1.26,22.87h0Z"/></g><path class="cls-18" d="m214.71,80.87s116.56-180.96,261.18,0c0,0-122.83-139.28-261.18,0h0Z"/><path class="cls-6" d="m345.16,4.04c-.32-.01-.62-.01-.91-.02-.18,0-.35-.01-.52-.01-.24,0-.46,0-.67,0h-1.61c-.53,0-1.14,0-1.83,0-.14.01-.29.01-.43.01-.15,0-.29.01-.45.01-.15,0-.3.01-.46.01-.42.01-.86.02-1.32.04-.55.02-1.13.04-1.74.07-.29.01-.58.03-.88.04-.68.04-1.37.07-2.11.12-.24.02-.49.03-.74.05-.44.03-.89.06-1.36.1-.37.03-.74.06-1.13.09-1.09.09-2.23.2-3.41.32-1.74.18-3.57.4-5.49.66-1.84.25-3.76.54-5.74.88-.99.17-2,.35-3.03.55-1.47.28-2.98.58-4.51.91-.16.04-.32.07-.48.11-1.51.33-3.04.69-4.6,1.08-8.81,2.21-18.33,5.38-27.81,9.92-1.14.54-2.27,1.1-3.4,1.69,0,0-10.75,5.55-20.96,13.66-32.96,26.18-48.01,65.95-48.01,65.95-17.19,45.43-7.01,85.95-1.37,108.42,7.13,28.41,18.57,49.91,26.91,63.33,10.65,17.05,11.5,35.14,3.22,43.39-5.86,5.84-14.75,5.24-31.56,4.1,0,0-19-1.25-27.25-9.81-.53-.55-1.03-1.11-1.5-1.68-.18-.22-.36-.45-.53-.67-.33-.46-.65-.93-.94-1.42-.14-.24-.28-.49-.42-.74s-.26-.5-.39-.76c-.12-.26-.24-.52-.36-.78-.23-.53-.44-1.07-.63-1.62-.11-.32-.21-.64-.31-.96-.15-.52-.3-1.05-.43-1.59-.13-.53-.25-1.08-.36-1.64-.16-.83-.3-1.69-.42-2.56s-.22-1.75-.3-2.65c-.17-1.81-.28-3.67-.37-5.58-.06-1.27-.11-2.56-.17-3.87-.02-.65-.05-1.31-.08-1.97,0-.2-.02-.39-.03-.59v-.03c0-.38-.03-.75-.04-1.1v-.07c-.04-1.39-.04-2.58-.03-3.48,0-7.61-.18-14.52-.42-20.62-.02-.49-.04-.97-.07-1.45-.04-.96-.08-1.9-.13-2.81-.02-.46-.04-.91-.07-1.36-.06-1.26-.13-2.48-.2-3.66-.06-1.14-.13-2.24-.2-3.3-.07-1.12-.15-2.17-.23-3.16,0-.04,0-.07,0-.11-.08-.98-.15-1.9-.24-2.78l-.06-.66c-.08-.84-.17-1.63-.27-2.39-.05-.45-.11-.88-.18-1.31-.12-.82-.25-1.6-.41-2.37-.15-.76-.32-1.5-.51-2.23-.1-.4-.21-.81-.34-1.21-.26-.91-.56-1.82-.91-2.75-.11-.3-.29-.77-.54-1.37-.1-.24-.21-.49-.33-.77-.06-.14-.12-.29-.2-.44-.12-.3-.27-.61-.42-.94,0,0,0,0,0,0-.15-.33-.32-.68-.5-1.04-.1-.19-.19-.38-.3-.57-.39-.76-.83-1.58-1.33-2.44-.13-.22-.25-.43-.39-.65-.26-.44-.54-.89-.84-1.35-.14-.23-.3-.46-.45-.69-.62-.93-1.29-1.89-2.04-2.87-.37-.48-.75-.98-1.16-1.47-1.01-1.23-2.12-2.48-3.34-3.71-2.05-2.06-4.18-3.85-6.34-5.41-1.3-.93-2.61-1.78-3.92-2.55-1.74-1.03-3.49-1.93-5.19-2.7-.86-.39-1.71-.75-2.54-1.08-7.53-2.99-14.13-3.79-17.2-4.05-1.61-.22-9.69-1.17-19.01,1.88-1.6.52-3.23,1.16-4.87,1.94h-.01c-.65.31-1.31.64-1.96,1-2.64,1.43-5.27,3.25-7.8,5.54-5.93,5.38-9.3,11.61-11.18,17.37-.07.19-.13.38-.18.57-.42,1.32-.76,2.61-1.03,3.86-.12.54-.22,1.08-.32,1.6-.72,3.95-.82,7.36-.75,9.65,0,.23.01.45.02.66.01.22.02.43.03.63.01.17.02.34.03.49.01.09.01.17.02.26.02.21.04.4.05.55.01.1.02.19.03.26,0,.04.01.07.01.1.41-.26,1-.64,1.75-1.09.3-.18.63-.37.98-.57.34-.19.72-.4,1.11-.62.99-.53,2.11-1.11,3.34-1.68.24-.11.49-.22.75-.34.5-.22,1.03-.45,1.57-.67.81-.33,1.65-.65,2.52-.95.87-.3,1.76-.58,2.68-.83.61-.17,1.23-.33,1.86-.47s1.27-.26,1.91-.37c.64-.11,1.29-.19,1.94-.26,4.27-.45,8.72,0,12.84,2.07.78.4,3.49,1.83,5.98,4.59,1.5,1.66,2.63,3.47,3.45,5.42.28.65.52,1.32.72,2,.21.69.39,1.39.54,2.1.09.41.16.83.22,1.25.96,5.95.12,12.94-1.16,20.86-.08.5-.16,1.01-.25,1.52-.16,1.03-.34,2.07-.52,3.12-.26,1.59-.54,3.2-.81,4.85-.17,1.1-.35,2.22-.53,3.34-.26,1.7-.51,3.42-.74,5.18-.94,7.12-1.57,14.75-1.26,22.87.3,7.71,1.07,23.6,9.53,40.85,4.47,9.12,10.54,17.49,17.78,24.8.65.66,1.32,1.32,2,1.97s1.37,1.29,2.06,1.91c1.4,1.26,2.82,2.48,4.28,3.65,12.42,10.01,27.24,17.16,42.9,20.18,7.58,1.46,13.8,1.66,17.61,1.64,36.33-.19,71.32-30.25,77.94-36.11"/><path class="cls-6" d="m409.13,366.24c6.62,5.86,41.61,35.92,77.94,36.11,3.81.02,10.03-.18,17.61-1.64,15.66-3.02,30.48-10.17,42.9-20.18,1.46-1.17,2.88-2.39,4.28-3.65.69-.62,1.38-1.26,2.06-1.91s1.35-1.31,2-1.97c7.24-7.31,13.31-15.68,17.78-24.8,8.46-17.25,9.23-33.14,9.53-40.85.31-8.12-.32-15.75-1.26-22.87-.23-1.76-.48-3.48-.74-5.18-.18-1.12-.36-2.24-.53-3.34-.27-1.65-.55-3.26-.81-4.85-.18-1.05-.36-2.09-.52-3.12-.09-.51-.17-1.02-.25-1.52-1.28-7.92-2.12-14.91-1.16-20.86.06-.42.13-.84.22-1.25.15-.71.33-1.41.54-2.1.2-.68.44-1.35.72-2,.82-1.95,1.95-3.76,3.45-5.42,2.49-2.76,5.2-4.19,5.98-4.59,4.12-2.08,8.57-2.52,12.84-2.07.65.07,1.3.15,1.94.26s1.28.23,1.91.37c.63.14,1.25.3,1.86.47.92.25,1.81.53,2.68.83s1.71.62,2.52.95c.54.22,1.07.45,1.57.67.26.12.51.23.75.34,1.23.57,2.35,1.15,3.34,1.68.39.22.77.43,1.11.62.35.2.68.39.98.57.75.45,1.34.83,1.75,1.09,0-.03.01-.06.01-.1.01-.07.02-.16.03-.26.01-.15.03-.34.05-.55.01-.09.01-.17.02-.26.01-.15.02-.32.03-.49.01-.2.02-.41.03-.63.01-.21.02-.43.02-.66.07-2.29-.03-5.7-.75-9.65-.1-.52-.2-1.06-.32-1.6-.27-1.25-.61-2.54-1.03-3.86-.05-.19-.11-.38-.18-.57-1.88-5.76-5.25-11.99-11.18-17.37-2.53-2.29-5.16-4.11-7.8-5.54-.65-.36-1.31-.69-1.96-1h-.01c-1.64-.78-3.27-1.42-4.87-1.94-9.32-3.05-17.4-2.1-19.01-1.88-3.07.26-9.67,1.06-17.2,4.05-.83.33-1.68.69-2.54,1.08-1.7.77-3.45,1.67-5.19,2.7-1.31.77-2.62,1.62-3.92,2.55-2.16,1.56-4.29,3.35-6.34,5.41-1.22,1.23-2.33,2.48-3.34,3.71-.41.49-.79.99-1.16,1.47-.75.98-1.42,1.94-2.04,2.87-.15.23-.31.46-.45.69-.3.46-.58.91-.84,1.35-.14.22-.26.43-.39.65-.5.86-.94,1.68-1.33,2.44-.11.19-.2.38-.3.57-.18.36-.35.71-.5,1.04,0,0-.01,0-.01,0-.15.33-.3.64-.42.94-.08.15-.14.3-.2.44-.12.28-.23.53-.33.77-.25.6-.43,1.07-.54,1.37-.35.93-.65,1.84-.91,2.75-.13.4-.24.81-.34,1.21-.19.73-.36,1.47-.51,2.23-.16.77-.29,1.55-.41,2.37-.07.43-.13.86-.18,1.31-.1.76-.19,1.55-.27,2.39l-.06.66c-.09.88-.16,1.8-.24,2.78,0,.04-.01.07,0,.11-.08.99-.16,2.04-.23,3.16-.07,1.06-.14,2.16-.2,3.3-.07,1.18-.14,2.4-.2,3.66-.03.45-.05.9-.07,1.36-.05.91-.09,1.85-.13,2.81-.03.48-.05.96-.07,1.45-.24,6.1-.41,13.01-.42,20.62.01.9.01,2.09-.03,3.48v.07c-.01.35-.03.72-.04,1.1v.03c0,.2-.02.39-.03.59-.03.66-.06,1.32-.08,1.97-.06,1.31-.11,2.6-.17,3.87-.09,1.91-.2,3.77-.37,5.58-.08.9-.18,1.78-.3,2.65s-.26,1.73-.42,2.56c-.11.56-.23,1.11-.36,1.64-.13.54-.28,1.07-.43,1.59-.1.32-.2.64-.31.96-.19.55-.4,1.09-.63,1.62-.12.26-.24.52-.36.78-.13.26-.25.51-.39.76s-.28.5-.42.74c-.29.49-.61.96-.94,1.42-.17.22-.35.45-.53.67-.47.57-.97,1.13-1.5,1.68-8.25,8.56-27.25,9.81-27.25,9.81-16.81,1.14-25.7,1.74-31.56-4.1-8.28-8.26-7.43-26.34,3.22-43.39,8.34-13.42,19.77-34.92,26.91-63.33,5.64-22.47,15.82-62.99-1.37-108.42,0,0-15.05-39.77-48.01-65.95-10.21-8.11-20.96-13.66-20.96-13.66-1.13-.59-2.26-1.15-3.4-1.69-9.48-4.54-19-7.71-27.81-9.92-1.56-.39-3.09-.75-4.6-1.08-.16-.04-.32-.07-.48-.11-1.53-.33-3.04-.63-4.51-.91-1.03-.2-2.04-.38-3.03-.55-1.98-.34-3.9-.63-5.74-.88-1.92-.26-3.75-.48-5.49-.66-1.18-.12-2.32-.23-3.41-.32-.39-.03-.76-.06-1.13-.09-.47-.04-.92-.07-1.36-.1-.25-.02-.5-.03-.74-.05-.74-.05-1.43-.08-2.11-.12-.3-.01-.59-.03-.88-.04-.61-.03-1.19-.05-1.74-.07-.46-.02-.9-.03-1.32-.04-.16,0-.31-.01-.46-.01-.16,0-.3-.01-.45-.01-.14,0-.29,0-.43-.01-.69,0-1.3,0-1.83,0h-1.61c-.21,0-.43,0-.67,0-.17,0-.34.01-.52.01-.29.01-.59.01-.91.02"/><g><path class="cls-14" d="m451.92,109.67c2.04,6.89.1,14.19-4.67,15.6s-9.45-3.93-11.49-10.82c-2.04-6.89-.97-13.78,3.8-15.19s10.32,3.52,12.36,10.41h0Z"/><path class="cls-14" d="m462.95,88.43c1.31,4.43-1.62,8.98-5.56,10.14-3.93,1.16-7.95-1.34-9.26-5.76s.8-8.39,4.73-9.55c3.93-1.16,8.78.74,10.08,5.17h.01Z"/><path class="cls-14" d="m429.63,84.31c-.71-4.56,1.06-8.82,4.56-9.37s7.25,2.85,7.97,7.41c.71,4.56-1.89,8.54-5.39,9.08s-6.42-2.56-7.14-7.12h0Z"/></g><g><path class="cls-14" d="m249.89,111.65c1.04,4.5-2.17,8.86-6.17,9.78s-7.85-1.82-8.89-6.32,1.31-8.32,5.3-9.24c4-.92,8.72,1.28,9.75,5.78h0Z"/><path class="cls-14" d="m220.26,101.55c-1.21,4.46-.26,8.8,3.09,9.71s7.29-2.12,8.49-6.57-.57-9.37-3.93-10.28-6.45,2.69-7.66,7.14h0Z"/><path class="cls-14" d="m245.57,88.82c.53-3.99-1.58-7.4-4.21-7.75s-4.89,2.48-5.42,6.47.86,7.67,3.49,8.02,5.61-2.74,6.14-6.74Z"/></g><g><ellipse class="cls-1" cx="298.93" cy="189.73" rx="20.64" ry="30.6"/><ellipse class="cls-18" cx="305.58" cy="185.94" rx="6.55" ry="9.17"/></g><g><ellipse class="cls-1" cx="391.66" cy="189.73" rx="20.64" ry="30.6"/><ellipse class="cls-18" cx="385.02" cy="185.94" rx="6.55" ry="9.17"/></g><ellipse class="cls-18" cx="345.16" cy="21.98" rx="33.02" ry="10.55"/><path class="cls-1" d="m345.16,240.78c21.56,0,39.86-7.43,39.86,0s-17.48,13.45-39.04,13.45-39.04-6.02-39.04-13.45,16.66,0,38.22,0Z"/><g><path class="cls-19" d="m192.01,372.24c0,.33,0,.7,0,1.1,0,.24,0,.49-.02.76,0,.39-.02.81-.03,1.25-.02.37-.04.75-.06,1.16,0,.23-.03.46-.04.71-.02.19-.02.39-.04.59-.11,1.58-.27,3.34-.5,5.25-.04.28-.07.56-.11.85-.04.22-.06.46-.1.69-.09.64-.19,1.29-.29,1.96,0,.02,0,.04-.02.07-.07.42-.13.84-.22,1.26-.07.42-.15.85-.23,1.28h0s-.02.06-.02.09c-.05.26-.1.5-.16.77-.18.91-.38,1.83-.6,2.78-.04.13-.07.27-.1.4-.09.35-.17.7-.26,1.06-.08.3-.16.61-.24.91-.12.43-.24.88-.37,1.32-.16.55-.32,1.11-.49,1.67-.1.31-.19.63-.3.94-.11.39-.25.78-.38,1.18-.19.56-.38,1.11-.59,1.67-.23.65-.47,1.28-.72,1.92-.37.96-.77,1.93-1.21,2.89-.18.43-.37.85-.58,1.28-.71,1.56-1.51,3.13-2.38,4.68-.23.41-.47.84-.72,1.26-.21.35-.42.71-.64,1.05-.85,1.4-1.76,2.77-2.74,4.13-.19.25-.37.51-.56.77-.29.38-.58.77-.89,1.15-.17.23-.34.44-.53.67-1.68,2.09-3.53,4.11-5.58,6.05-.38.35-.76.7-1.15,1.05-4.35,3.9-9.52,7.38-15.67,10.2-.38.17-.76.33-1.14.5-.89.39-1.79.76-2.71,1.11-.47.18-.94.36-1.41.53-.94.35-1.91.68-2.9.99-.28.08-.55.17-.83.26-.04.01-.09.03-.13.04-.18.05-.35.11-.53.16-.02.01-.05.01-.07.02-3.02.89-6.24,1.64-9.65,2.23-15.07,3.46-30.75-1.6-40.47-13.14-.1-.12-.19-.24-.29-.35-.54-.66-1.05-1.33-1.53-1.99-.17-.24-.34-.49-.5-.72-.09-.12-.16-.23-.24-.36-.12-.17-.24-.34-.36-.53-.29-.45-.57-.9-.83-1.37-.14-.23-.27-.46-.4-.7-.36-.63-.69-1.26-.99-1.9-.12-.23-.24-.47-.34-.72-.33-.7-.62-1.4-.89-2.11-.12-.27-.22-.54-.32-.81-.01-.03-.01-.05-.02-.08-.13-.37-.26-.72-.37-1.09-.13-.38-.25-.75-.36-1.12-3.41-11.54-.78-21.85-.44-23.09.85-2.39,6.49-19.35-3.28-34.78-.27-.43-.54-.84-.83-1.24-5.05-7.32-11.63-11.04-15.09-12.69,0,0-11.27-5.72-30.7-6.63,0,0,10.66-13.6,29.35-18.86.14-.05.28-.09.42-.12,12.68-3.46,29.01-3.06,48.16,7.93,0,0,32.53,14.61,27.63,61.05,0,0-.08,12.04,7.04,15.6.25.13.49.24.73.33.24.11.49.19.73.27h.02c.18.06.35.11.52.15,1.14.32,2.27.41,3.33.38,0,0,0,0,.02-.01.32-.01.65-.03.95-.06.24-.03.48-.07.71-.1.26-.05.52-.09.75-.14.02-.01.04-.01.06-.02.15-.03.29-.06.43-.1.32-.08.63-.18.92-.27,1.31-.43,2.34-.96,2.93-1.29.19-.1.33-.18.43-.25.06-.04.11-.07.13-.08l30.83-34.4h0c0,.08.02.3.04.67,0,.1,0,.19,0,.29,0,.27,0,.59.02.97,0,.24,0,.52,0,.81h0Z"/><path class="cls-15" d="m148.91,435.93l-5.15,6.72-.02.02c-3.02.89-6.24,1.64-9.65,2.23-15.07,3.46-30.75-1.6-40.47-13.14-.1-.12-.19-.24-.29-.35-.54-.66-1.05-1.33-1.53-1.99-.17-.24-.34-.49-.5-.72-.09-.12-.16-.23-.24-.36-.12-.17-.24-.34-.36-.53-.29-.45-.57-.9-.83-1.37-.14-.23-.27-.46-.4-.7-.36-.63-.69-1.26-.99-1.9-.12-.23-.24-.47-.34-.72-.33-.7-.62-1.4-.89-2.11-.12-.27-.22-.54-.32-.81-.01-.03-.01-.05-.02-.08-.13-.37-.26-.72-.37-1.09-.13-.38-.25-.75-.36-1.12-3.41-11.54-.78-21.85-.44-23.09.85-2.39,6.49-19.35-3.28-34.78-.27-.43-.54-.84-.83-1.24.15-.23.27-.42.37-.59.3-.47.46-.73.46-.73,7.39,6.14,16.64,15.95,19.94,29.95,2.56,10.85-1.11,14.57,2.62,24.66,3.99,10.81,14.16,23.16,28.58,25.35,6.48.98,11.97-.37,15.31-1.51h0Z"/><path class="cls-4" d="m161.76,403.7s-.07.04-.13.08c-.1.07-.24.15-.43.25-.72.41-2.1,1.1-3.86,1.56-.13.04-.28.07-.43.11l-.06.02c-.24.05-.49.09-.75.14-.23.04-.47.08-.71.11-.3.03-.63.05-.95.06h-.02c-1.06.04-2.19-.06-3.33-.37-.17-.04-.34-.09-.51-.15,0,0-.02,0-.02-.01-.24-.07-.48-.16-.72-.27-.25-.09-.49-.2-.73-.33-7.12-3.57-7.04-15.6-7.04-15.6,4.91-46.45-27.63-61.05-27.63-61.05-47.77-27.41-77.93,11.05-77.93,11.05,19.43.91,30.71,6.63,30.71,6.63,3.64,1.74,10.76,5.79,15.91,13.93,9.78,15.43,4.13,32.39,3.28,34.78-.34,1.25-2.97,11.55.44,23.09.11.37.23.75.35,1.13.12.36.24.72.37,1.09l.02.08c.1.27.2.54.31.81.27.7.56,1.41.89,2.1.11.25.22.49.34.72.3.64.64,1.27.99,1.9.13.24.27.47.41.7.26.46.54.91.83,1.37.12.18.23.36.36.53.08.12.15.24.24.36.16.23.33.48.5.72.48.66.99,1.33,1.53,1.99l.29.35c9.72,11.54,25.4,16.6,40.46,13.14,3.44-.59,6.68-1.35,9.72-2.25.5-.15.99-.3,1.49-.46.99-.3,1.96-.64,2.9-.98.47-.17.94-.35,1.41-.53.93-.36,1.83-.73,2.72-1.12.38-.16.76-.33,1.13-.5,6.15-2.82,11.33-6.3,15.67-10.2.4-.35.77-.7,1.15-1.05,2.05-1.94,3.91-3.96,5.58-6.05.18-.22.36-.44.53-.67.3-.38.6-.77.89-1.15.18-.26.37-.52.55-.77.99-1.36,1.89-2.73,2.74-4.13.22-.35.43-.7.64-1.05.25-.42.49-.84.72-1.26.87-1.55,1.66-3.12,2.38-4.68.2-.44.39-.86.58-1.29.43-.96.84-1.93,1.21-2.89.25-.64.49-1.27.72-1.91.21-.56.4-1.12.59-1.68.13-.39.27-.79.38-1.18.11-.31.2-.63.3-.94.18-.56.34-1.12.5-1.67.13-.44.25-.89.36-1.32.09-.31.16-.61.24-.92.09-.36.18-.71.26-1.06l.1-.4c.22-.94.43-1.87.61-2.78.06-.27.11-.51.16-.77,0-.03,0-.07.02-.09h0c.08-.44.17-.86.24-1.29.08-.42.15-.84.21-1.25,0-.03,0-.06.02-.08.11-.67.21-1.31.3-1.95.04-.23.06-.47.1-.7.04-.28.07-.56.1-.84.24-1.91.4-3.67.5-5.25.02-.2.03-.4.04-.6,0-.24.03-.48.04-.71.02-.4.04-.78.06-1.15.02-.44.03-.86.04-1.25,0-.27,0-.52,0-.77v-1.1c0-.29,0-.56,0-.81,0-.37,0-.7,0-.97,0-.1,0-.2,0-.29-.02-.37-.03-.6-.04-.67v-.02"/></g><path class="cls-20" d="m546.36,282.6v216.78c0,7.61-3.99,14.29-9.99,18.05-3.28,2.07-7.16,3.26-11.32,3.26H165.56c-11.77,0-21.32-9.54-21.32-21.31v-216.78c0-11.77,9.55-21.31,21.32-21.31h359.49c11.77,0,21.31,9.54,21.31,21.31Z"/><path class="cls-2" d="m546.36,282.6v216.78c0,7.61-3.99,14.29-9.99,18.05-3.28,2.07-7.16,3.26-11.32,3.26H165.56c-11.77,0-21.32-9.54-21.32-21.31v-216.78c0-11.77,9.55-21.31,21.32-21.31h359.49c11.77,0,21.31,9.54,21.31,21.31Z"/><rect class="cls-5" x="159.32" y="274.94" width="371.96" height="232.1" rx="9.79" ry="9.79"/><g><rect class="cls-23" x="159.32" y="274.95" width="371.95" height="232.09" rx="9.79" ry="9.79"/><path class="cls-12" d="m531.27,465.85v31.4c0,5.41-4.38,9.79-9.79,9.79H169.11c-5.41,0-9.79-4.38-9.79-9.79v-47.03c29.86-3.2,71.54-2.83,112.55,13.58,76.6,30.64,147.06,6.13,147.06,6.13,0,0,61.37-11.6,112.34-4.08Z"/><g><path class="cls-25" d="m205.06,457.49c-3.3-.04-6.58-.78-9.58-2.16-1.67-.77-3.45-2.05-3.46-3.89,0-1.12.67-2.13.84-3.24.39-2.6-2.03-4.72-4.35-5.94s-5.03-2.33-6.08-4.74c-1.22-2.79.37-5.93,1.87-8.58s2.95-5.91,1.52-8.59c-.54-1.02-1.45-1.8-2.35-2.52-1.73-1.4-3.53-2.7-5.4-3.91-3-1.95-6.55-4.23-6.74-7.8-.04-.66.06-1.34.4-1.91.84-1.43,2.82-1.7,3.97-2.89,1.01-1.05,1.22-2.68.84-4.09s-1.27-2.62-2.22-3.72c-2.13-2.46-4.69-4.53-6.71-7.08s-3.48-5.81-2.89-9.01,3.86-5.98,7-5.13c2.06.56,3.48,2.39,4.9,3.99s3.31,3.17,5.43,2.91c1.23-.15,2.29-.9,3.45-1.32,3.28-1.18,7.05.46,9.34,3.09s3.4,6.06,4.34,9.41,1.8,6.81,3.73,9.71c1.21,1.83,2.82,3.39,3.81,5.35,2.27,4.51.79,9.88.07,14.87-.52,3.63-.61,7.32-.26,10.96.26,2.7.82,5.51,2.54,7.6,1.66,2.02,4.18,3.1,6.23,4.72,3.08,2.43,5.08,6.18,5.39,10.09l-15.65,3.82h.02Z"/><path class="cls-25" d="m255.34,454.04c3.3-.04,6.58-.78,9.58-2.16,1.67-.77,3.45-2.05,3.46-3.89,0-1.12-.67-2.13-.84-3.24-.39-2.6,2.03-4.72,4.35-5.94s5.03-2.33,6.08-4.74c1.22-2.79-.37-5.93-1.87-8.58s-2.95-5.91-1.52-8.59c.54-1.02,1.45-1.8,2.35-2.52,1.73-1.4,3.53-2.7,5.4-3.91,3-1.95,6.55-4.23,6.74-7.8.04-.66-.06-1.34-.4-1.91-.84-1.43-2.82-1.7-3.97-2.89-1.01-1.05-1.22-2.68-.84-4.09s1.27-2.62,2.22-3.72c2.13-2.46,4.69-4.53,6.71-7.08s3.48-5.81,2.89-9.01-3.86-5.98-7-5.13c-2.06.56-3.48,2.39-4.9,3.99s-3.31,3.17-5.43,2.91c-1.23-.15-2.29-.9-3.45-1.32-3.28-1.18-7.05.46-9.34,3.09s-3.4,6.06-4.34,9.41-1.8,6.81-3.73,9.71c-1.21,1.83-2.82,3.39-3.81,5.35-2.27,4.51-.79,9.88-.07,14.87.52,3.63.61,7.32.26,10.96-.26,2.7-.82,5.51-2.54,7.6-1.66,2.02-4.18,3.1-6.23,4.72-3.08,2.43-5.08,6.18-5.39,10.09l15.65,3.82h-.02Z"/><path class="cls-11" d="m236.71,450.06c3.21-1.78,6-4.33,8.13-7.43,1.18-1.73,2.17-4.1,1.08-6.15-.66-1.25-1.93-2.02-2.75-3.16-1.93-2.68-.82-6.31.74-8.9,1.55-2.58,3.55-5.24,3.15-8.46-.47-3.74-3.9-6.4-6.94-8.56s-6.42-5.02-6.61-8.76c-.07-1.42.35-2.76.8-4.04.87-2.46,1.86-4.86,2.98-7.19,1.79-3.74,3.92-8.14,1.98-12.22-.36-.75-.86-1.46-1.53-1.92-1.67-1.15-3.78-.41-5.62-1.13-1.62-.63-2.8-2.34-3.26-4.11s-.31-3.58-.03-5.3c.63-3.85,1.92-7.5,2.38-11.4s-.04-8.29-2.52-11.54-7.35-4.62-9.93-2.02c-1.7,1.71-1.99,4.49-2.44,7.01-.45,2.52-1.37,5.26-3.61,6.09-1.3.48-2.78.21-4.18.35-3.92.41-6.65,4.22-7.34,8.34s.27,8.52,1.34,12.75c1.07,4.22,2.28,8.52,2.12,12.76-.1,2.67-.75,5.26-.55,7.95.45,6.21,5.1,11.4,8.78,16.58,2.67,3.76,4.95,7.82,6.77,12.06,1.35,3.14,2.48,6.56,2.03,9.79-.43,3.12-2.26,5.64-3.32,8.52-1.58,4.32-1.32,9.54.71,14.06l17.66-3.98h-.02Z"/><path class="cls-3" d="m168.92,372.44c1.68,7.32,4.76,11.57,7.2,14.07,4.03,4.14,6.65,3.87,11.69,9.01,1.93,1.97,5.4,5.58,7.55,11.2,1.51,3.94,1.74,7.5,2.19,14.61.26,4.02.28,7.37.24,9.74-.04,2.61.21,8.83,4.14,15.22,3.18,5.18,7.28,8.05,9.5,9.38"/><path class="cls-3" d="m291.49,368.91c-1.68,7.32-4.76,11.57-7.2,14.07-4.03,4.14-6.65,3.87-11.69,9.01-1.93,1.97-5.4,5.58-7.55,11.2-1.51,3.94-1.74,7.5-2.19,14.61-.26,4.02-.28,7.37-.24,9.74.04,2.61-.21,8.83-4.14,15.22-3.18,5.18-7.28,8.05-9.5,9.38"/><path class="cls-8" d="m224.1,336.7s2.61,16.75-6.89,30.08c-9.5,13.34,6.03,36.9,6.03,36.9,0,0,14.25,15.53,6.94,47.5"/><path class="cls-24" d="m194.93,471.82h74.67c5.33-.31,9.49-2.27,9.91-4.75.47-2.74-3.69-5.61-7.12-7.86-4.3-2.81-8.09-4.14-9.32-4.57-9.19-3.16-13.78-4.74-19.36-5.66-15.69-2.59-36.37-.29-48.78,10.23-2.06,1.75-6.69,5.68-5.66,8.95.75,2.38,4.16,3.33,5.66,3.65h0Z"/><path class="cls-21" d="m279.54,466.87c0,.06-.02.14-.03.2-.42,2.48-4.59,4.44-9.92,4.75h-74.67c-1.5-.33-4.91-1.27-5.66-3.66-1.03-3.27,3.61-7.21,5.66-8.95.71-.6,1.44-1.17,2.2-1.72.85,5.12,9.31,10.33,41.84,9.03,17.52-.7,29.18-.77,36.91-.51,1.32.04,2.53.1,3.63.16.04.23.05.46.04.69h0Z"/></g><g><path class="cls-25" d="m485.12,474.79c3.3-.04,6.58-.78,9.58-2.16,1.67-.77,3.45-2.05,3.46-3.89,0-1.12-.67-2.13-.84-3.24-.39-2.6,2.03-4.72,4.35-5.94s5.03-2.33,6.08-4.74c1.22-2.79-.37-5.93-1.87-8.58s-2.95-5.91-1.52-8.59c.54-1.02,1.45-1.8,2.35-2.52,1.73-1.4,3.53-2.7,5.4-3.91,3-1.95,6.55-4.23,6.74-7.8.04-.66-.06-1.34-.4-1.91-.84-1.43-2.82-1.7-3.97-2.89-1.01-1.05-1.22-2.68-.84-4.09s1.27-2.62,2.22-3.72c2.13-2.46,4.69-4.53,6.71-7.08s3.48-5.81,2.89-9.01c-.59-3.2-3.86-5.98-7-5.13-2.06.56-3.48,2.39-4.9,3.99s-3.31,3.17-5.43,2.91c-1.23-.15-2.29-.9-3.45-1.32-3.28-1.18-7.05.46-9.34,3.09s-3.4,6.06-4.34,9.41-1.8,6.81-3.73,9.71c-1.21,1.83-2.82,3.39-3.81,5.35-2.27,4.51-.79,9.88-.07,14.87.52,3.63.61,7.32.26,10.96-.26,2.7-.82,5.51-2.54,7.6-1.66,2.02-4.18,3.1-6.23,4.72-3.08,2.43-5.08,6.18-5.39,10.09l15.65,3.82h-.02Z"/><path class="cls-25" d="m434.84,471.34c-3.3-.04-6.58-.78-9.58-2.16-1.67-.77-3.45-2.05-3.46-3.89,0-1.12.67-2.13.84-3.24.39-2.6-2.03-4.72-4.35-5.94s-5.03-2.33-6.08-4.74c-1.22-2.79.37-5.93,1.87-8.58s2.95-5.91,1.52-8.59c-.54-1.02-1.45-1.8-2.35-2.52-1.73-1.4-3.53-2.7-5.4-3.91-3-1.95-6.55-4.23-6.74-7.8-.04-.66.06-1.34.4-1.91.84-1.43,2.82-1.7,3.97-2.89,1.01-1.05,1.22-2.68.84-4.09s-1.27-2.62-2.22-3.72c-2.13-2.46-4.69-4.53-6.71-7.08s-3.48-5.81-2.89-9.01,3.86-5.98,7-5.13c2.06.56,3.48,2.39,4.9,3.99s3.31,3.17,5.43,2.91c1.23-.15,2.29-.9,3.45-1.32,3.28-1.18,7.05.46,9.34,3.09s3.4,6.06,4.34,9.41,1.8,6.81,3.73,9.71c1.21,1.83,2.82,3.39,3.81,5.35,2.27,4.51.79,9.88.07,14.87-.52,3.63-.61,7.32-.26,10.96.26,2.7.82,5.51,2.54,7.6,1.66,2.02,4.18,3.1,6.23,4.72,3.08,2.43,5.08,6.18,5.39,10.09l-15.65,3.82h.02Z"/><path class="cls-11" d="m453.47,467.36c-3.21-1.78-6-4.33-8.13-7.43-1.18-1.73-2.17-4.1-1.08-6.15.66-1.25,1.93-2.02,2.75-3.16,1.93-2.68.82-6.31-.74-8.9s-3.55-5.24-3.15-8.46c.47-3.74,3.9-6.4,6.94-8.56s6.42-5.02,6.61-8.76c.07-1.42-.35-2.76-.8-4.04-.87-2.46-1.86-4.86-2.98-7.19-1.79-3.74-3.92-8.14-1.98-12.22.36-.75.86-1.46,1.53-1.92,1.67-1.15,3.78-.41,5.62-1.13,1.62-.63,2.8-2.34,3.26-4.11s.31-3.58.03-5.3c-.63-3.85-1.92-7.5-2.38-11.4s.04-8.29,2.52-11.54,7.35-4.62,9.93-2.02c1.7,1.71,1.99,4.49,2.44,7.01.45,2.52,1.37,5.26,3.61,6.09,1.3.48,2.78.21,4.18.35,3.92.41,6.65,4.22,7.34,8.34s-.27,8.52-1.34,12.75-2.28,8.52-2.12,12.76c.1,2.67.75,5.26.55,7.95-.45,6.21-5.1,11.4-8.78,16.58-2.67,3.76-4.95,7.82-6.77,12.06-1.35,3.14-2.48,6.56-2.03,9.79.43,3.12,2.26,5.64,3.32,8.52,1.58,4.32,1.32,9.54-.71,14.06l-17.66-3.98h.02Z"/><path class="cls-3" d="m521.27,389.74c-1.68,7.32-4.76,11.57-7.2,14.07-4.03,4.14-6.65,3.87-11.69,9.01-1.93,1.97-5.4,5.58-7.55,11.2-1.51,3.94-1.74,7.5-2.19,14.61-.26,4.02-.28,7.37-.24,9.74.04,2.61-.21,8.83-4.14,15.22-3.18,5.18-7.28,8.05-9.5,9.38"/><path class="cls-3" d="m398.69,386.21c1.68,7.32,4.76,11.57,7.2,14.07,4.03,4.14,6.65,3.87,11.69,9.01,1.93,1.97,5.4,5.58,7.55,11.2,1.51,3.94,1.74,7.5,2.19,14.61.26,4.02.28,7.37.24,9.74-.04,2.61.21,8.83,4.14,15.22,3.18,5.18,7.28,8.05,9.5,9.38"/><path class="cls-8" d="m466.08,354s-2.61,16.75,6.89,30.08c9.5,13.34-6.03,36.9-6.03,36.9,0,0-14.25,15.53-6.94,47.5"/><path class="cls-24" d="m495.25,489.12h-74.67c-5.33-.31-9.49-2.27-9.91-4.75-.47-2.74,3.69-5.61,7.12-7.86,4.3-2.81,8.09-4.14,9.32-4.57,9.19-3.16,13.78-4.74,19.36-5.66,15.69-2.59,36.37-.29,48.78,10.23,2.06,1.75,6.69,5.68,5.66,8.95-.75,2.38-4.16,3.33-5.66,3.65h0Z"/><path class="cls-21" d="m410.64,484.17c0,.06.02.14.03.2.42,2.48,4.59,4.44,9.92,4.75h74.67c1.5-.33,4.91-1.27,5.66-3.66,1.03-3.27-3.61-7.21-5.66-8.95-.71-.6-1.44-1.17-2.2-1.72-.85,5.12-9.31,10.33-41.84,9.03-17.52-.7-29.18-.77-36.91-.51-1.32.04-2.53.1-3.63.16-.04.23-.05.46-.04.69h0Z"/></g><path class="cls-10" d="m531.27,494.13v3.12c0,5.41-4.38,9.79-9.79,9.79H169.11c-5.41,0-9.79-4.38-9.79-9.79v-3.12h371.95Z"/><rect class="cls-25" x="166.17" y="496.75" width="11.17" height="7.66" rx="1.84" ry="1.84"/><rect class="cls-25" x="482.09" y="496.75" width="11.17" height="7.66" rx="1.84" ry="1.84"/><rect class="cls-25" x="496.04" y="496.75" width="22.75" height="7.66" rx="1.84" ry="1.84"/><path class="cls-16" d="m531.27,284.73v72.75c-167.81-90.4-330.95-21.06-371.95-.69v-72.06c0-5.41,4.38-9.79,9.79-9.79h352.37c5.41,0,9.79,4.38,9.79,9.79h0Z"/><path class="cls-10" d="m494.39,338.1c0-3.73,2.99-6.46,6.72-6.46s6.39,2.73,6.39,6.46-2.66,6.66-6.39,6.66-6.72-2.93-6.72-6.66Z"/><path class="cls-10" d="m501.12,360.35c0-1.67,1.34-2.89,3.01-2.89s2.86,1.22,2.86,2.89-1.19,2.98-2.86,2.98-3.01-1.31-3.01-2.98Z"/><path class="cls-10" d="m520.5,349.87c0-2.67-2.19-5.05-4.86-5.05s-5.09,2.38-5.09,5.05,2.42,4.9,5.09,4.9,4.86-2.23,4.86-4.9Z"/><path class="cls-10" d="m204,302.41c0-3.73-3.06-7.05-6.78-7.05s-7.11,3.32-7.11,7.05,3.38,6.85,7.11,6.85,6.78-3.12,6.78-6.85Z"/><path class="cls-10" d="m197.23,324.66c0-1.67-1.37-3.15-3.04-3.15s-3.18,1.48-3.18,3.15,1.51,3.06,3.18,3.06,3.04-1.39,3.04-3.06Z"/><path class="cls-10" d="m177.86,314.18c0-2.67,2.14-4.62,4.81-4.62s4.58,1.95,4.58,4.62-1.91,4.77-4.58,4.77-4.81-2.1-4.81-4.77Z"/></g><rect class="cls-9" x="213.61" y="308.82" width="263.39" height="164.35" rx="6.93" ry="6.93"/><g id="Warstwa_3"><rect class="cls-17" x="257.83" y="360.4" width="133.83" height="14.45" rx="2.3" ry="2.3"/><rect class="cls-17" x="257.83" y="380.31" width="133.83" height="14.45" rx="2.3" ry="2.3"/><rect class="cls-17" x="257.83" y="400.22" width="133.83" height="14.45" rx="2.3" ry="2.3"/><rect class="cls-17" x="257.83" y="420.29" width="133.83" height="14.45" rx="2.3" ry="2.3"/><rect class="cls-13" x="257.93" y="440.97" width="44.53" height="14.45" rx="2.3" ry="2.3"/><g><path class="cls-17" d="m259.01,338.29c.59-1.03,1.39-1.84,2.41-2.41s2.16-.86,3.43-.86c1.48,0,2.78.38,3.9,1.14,1.11.76,1.89,1.81,2.34,3.15h-3.06c-.3-.63-.73-1.11-1.28-1.43-.55-.32-1.19-.47-1.91-.47-.77,0-1.46.18-2.06.54-.6.36-1.07.87-1.41,1.53-.34.66-.5,1.43-.5,2.32s.17,1.64.5,2.31.8,1.18,1.41,1.54c.6.36,1.29.54,2.06.54.72,0,1.36-.16,1.91-.48.55-.32.98-.8,1.28-1.43h3.06c-.44,1.36-1.22,2.41-2.33,3.16-1.11.75-2.41,1.13-3.9,1.13-1.27,0-2.41-.29-3.43-.87-1.02-.58-1.82-1.38-2.41-2.4-.59-1.03-.88-2.19-.88-3.5s.29-2.47.88-3.5Z"/><path class="cls-17" d="m275.7,347.94c-.81-.45-1.45-1.09-1.91-1.91s-.69-1.77-.69-2.85.24-2.03.71-2.85c.48-.82,1.12-1.46,1.95-1.91.82-.45,1.74-.67,2.75-.67s1.93.23,2.75.67c.82.45,1.47,1.09,1.95,1.91.47.82.71,1.77.71,2.85s-.24,2.03-.73,2.85c-.49.82-1.15,1.46-1.98,1.91-.83.45-1.76.67-2.78.67s-1.93-.22-2.74-.67Zm4.09-1.99c.42-.23.76-.59,1.02-1.05s.38-1.04.38-1.71c0-1-.26-1.77-.79-2.31-.53-.54-1.17-.81-1.93-.81s-1.4.27-1.91.81c-.51.54-.77,1.31-.77,2.31s.25,1.77.75,2.31c.5.54,1.13.81,1.89.81.48,0,.93-.12,1.36-.35Z"/><path class="cls-17" d="m295.16,338.95c.77.79,1.16,1.9,1.16,3.32v6.17h-2.66v-5.81c0-.84-.21-1.48-.63-1.93-.42-.45-.99-.67-1.71-.67s-1.31.22-1.74.67c-.42.45-.64,1.09-.64,1.93v5.81h-2.66v-10.53h2.66v1.31c.35-.46.81-.81,1.36-1.07.55-.26,1.16-.39,1.81-.39,1.25,0,2.27.4,3.04,1.19Z"/><path class="cls-17" d="m302.34,340.1v5.09c0,.35.09.61.26.77s.46.24.86.24h1.24v2.24h-1.67c-2.24,0-3.36-1.09-3.36-3.27v-5.07h-1.25v-2.19h1.25v-2.6h2.68v2.6h2.36v2.19h-2.36Z"/><path class="cls-17" d="m306.97,340.31c.42-.82,1-1.46,1.73-1.9.73-.44,1.54-.67,2.44-.67.79,0,1.47.16,2.06.48s1.06.72,1.42,1.2v-1.5h2.68v10.53h-2.68v-1.54c-.34.49-.81.9-1.42,1.23-.6.32-1.3.48-2.08.48-.89,0-1.69-.23-2.42-.68-.73-.46-1.31-1.1-1.73-1.93-.42-.83-.64-1.78-.64-2.86s.21-2.01.64-2.83Zm7.27,1.21c-.25-.46-.6-.82-1.03-1.06s-.89-.37-1.39-.37-.95.12-1.37.36c-.42.24-.76.59-1.02,1.05s-.39,1.01-.39,1.64.13,1.19.39,1.66c.26.48.6.84,1.03,1.09.42.25.88.38,1.36.38s.96-.12,1.39-.37.77-.6,1.03-1.06c.25-.46.38-1.02.38-1.66s-.13-1.2-.38-1.66Z"/><path class="cls-17" d="m320.28,340.32c.44-.82,1.06-1.45,1.84-1.9.79-.45,1.68-.67,2.7-.67,1.3,0,2.38.33,3.24.98.86.65,1.43,1.57,1.72,2.75h-2.87c-.15-.46-.41-.81-.77-1.07-.36-.26-.81-.39-1.34-.39-.76,0-1.36.28-1.81.83s-.66,1.33-.66,2.35.22,1.78.66,2.33,1.05.83,1.81.83c1.08,0,1.78-.48,2.11-1.44h2.87c-.29,1.14-.87,2.05-1.73,2.72-.86.67-1.94,1.01-3.23,1.01-1.01,0-1.91-.22-2.7-.67-.79-.45-1.4-1.08-1.84-1.9-.44-.82-.67-1.77-.67-2.86s.22-2.04.67-2.86Z"/><path class="cls-17" d="m335.23,340.1v5.09c0,.35.09.61.26.77s.46.24.86.24h1.24v2.24h-1.67c-2.24,0-3.36-1.09-3.36-3.27v-5.07h-1.25v-2.19h1.25v-2.6h2.68v2.6h2.36v2.19h-2.36Z"/></g></g><g><path class="cls-19" d="m608.14,386.04c-.12,3.9-.71,8.01-1.96,12.23-3.28,11.11-9.75,18.46-13.62,22.13-5.51,5.24-11.99,9-18.96,11.47-8.64,3.09-18.02,4.2-27.24,3.73-5.13-.25-10.21-.99-15.08-2.16h-.05c-.78-.14-11.13-2.03-14.98-5.25-.08-.06-.57-.49-1.29-1.01-.91-.65-1.59-1.04-1.98-1.28-1.32-.79-1.99-1.44-3.07-2.29-2.51-2.01-4.18-2.73-6.94-4.48-.01,0-.02-.01-.03-.02-1.06-.68-2.3-1.51-3.8-2.64-.04-.03-.08-.06-.12-.09-.03-.01-.05-.03-.08-.05-2.99-2.06-5.89-4.05-8.71-5.97-1.42-.97-2.81-1.92-4.19-2.84-3.08-2.08-6.08-4.07-9.04-5.97-.51-.33-1.03-.66-1.54-.99-6.3-4.01-12.42-7.62-18.61-10.81-6.62-3.41-13.33-6.34-20.46-8.76-2.71-.92-5.47-1.76-8.32-2.53-.31-.09-.63-.18-.95-.26-.59-.16-1.23-.32-1.91-.49-3.54-.88-8.19-1.88-13.77-2.69-1.83-.26-3.77-.51-5.81-.73-.84-.09-1.69-.17-2.56-.25,0,0,1.7-1.29,4.97-3.1,1.78-.98,4.03-2.12,6.72-3.28,9.66-4.17,25.03-8.67,45.14-7.69,1.91.09,3.86.23,5.86.43,2.6.25,5.27.6,8.01,1.05,1.07.17,2.14.36,3.23.57,2.04.39,4.12.84,6.24,1.35,21.04,5.07,36.81,5.27,48.04,3.79,6.51-.87,11.49-2.29,15.08-3.66,5.01-1.9,7.32-3.69,7.32-3.69v-27.75c7.75.46,22.23,2.53,35.73,12.63,4.03,3.01,7.26,6.21,9.83,9.21.04.09.09.17.13.26,1.84,3,9.29,15.71,8.77,31.89h0Z"/><path class="cls-15" d="m608.14,386.04c-.12,3.9-.71,8.01-1.96,12.23-3.28,11.11-9.75,18.46-13.62,22.13-5.51,5.24-11.99,9-18.96,11.47-8.64,3.09-18.02,4.2-27.24,3.73-5.13-.25-10.21-.99-15.08-2.16h-.05c-.78-.14-11.13-2.03-14.98-5.25-.44-.2-.88-.41-1.31-.63-3.7-1.86-2.21-1.55-11.97-8.43-.01,0-.02-.01-.03-.02-1.06-.68-2.3-1.51-3.8-2.64-.04-.03-.08-.06-.12-.09-.03-.01-.05-.03-.08-.05-2.99-2.06-5.89-4.05-8.71-5.97-1.42-.97-2.81-1.92-4.19-2.84-3.08-2.08-6.08-4.07-9.04-5.97-.51-.33-1.03-.66-1.54-.99-6.3-4.01-12.42-7.62-18.61-10.81-6.62-3.41-13.33-6.34-20.46-8.76-2.71-.92-5.47-1.76-8.32-2.53-.31-.09-.63-.18-.95-.26-.59-.16-1.23-.32-1.91-.49-3.54-.88-8.19-1.88-13.77-2.69l-1.28-2.54s50.79-7,113.38,29.88c61.38,36.17,83.76-14.34,84.6-16.31h0Z"/><path class="cls-4" d="m608.14,386.04c-.12,3.9-.71,8.01-1.96,12.23-3.28,11.11-9.75,18.46-13.62,22.13-5.51,5.24-11.99,9-18.96,11.47-8.64,3.09-18.02,4.2-27.24,3.73-5.13-.25-10.21-.99-15.08-2.16h-.05c-5.31-1.27-10.37-3.05-14.98-5.25-.44-.2-.88-.41-1.31-.63-3.7-1.86-2.21-1.55-11.97-8.43-.01,0-.02-.01-.03-.02-1.11-.78-2.37-1.66-3.8-2.64-.04-.03-.08-.06-.12-.09-.03-.01-.05-.03-.08-.05-2.99-2.06-5.89-4.05-8.71-5.97-1.42-.97-2.81-1.92-4.19-2.84-3.08-2.08-6.08-4.07-9.04-5.97-.51-.33-1.03-.66-1.54-.99-6.3-4.01-12.42-7.62-18.61-10.81-6.62-3.41-13.33-6.34-20.46-8.76-2.71-.92-5.47-1.76-8.32-2.53-.31-.09-.63-.18-.95-.26-.59-.16-1.23-.32-1.91-.49-3.54-.88-8.19-1.88-13.77-2.69-1.83-.26-3.77-.51-5.81-.73-.84-.09-1.69-.17-2.56-.25,0,0,1.7-1.29,4.97-3.1,1.78-.98,4.03-2.12,6.72-3.28,9.66-4.17,25.03-8.67,45.14-7.69,1.91.09,3.86.23,5.86.43,2.6.25,5.27.6,8.01,1.05,1.07.17,2.14.36,3.23.57,2.04.39,4.12.84,6.24,1.35,21.04,5.07,36.81,5.27,48.04,3.79,6.51-.87,11.49-2.29,15.08-3.66,5.01-1.9,7.32-3.69,7.32-3.69v-27.75c7.75.46,22.23,2.53,35.73,12.63,4.03,3.01,7.26,6.21,9.83,9.21.04.09.09.17.13.26,1.84,3,9.29,15.71,8.77,31.89h0Z"/></g><path class="cls-19" d="m292.28,518.63s-2.94-1.18-8.32-2.41c-4.98-1.15-12.05-2.33-20.8-2.65-.61-.02-1.22-.04-1.82-.05-.4,0-.41,0-.02,0-27.24-.5-53.42,10.18-71.13,17.25-3.51,1.4-9.69,3.96-18.56,6.13-5.03,1.23-13.21,3.18-23.71,3.42h-.31c-9.5-.17-21.57-.39-34.2-7.51-8.31-4.68-13.74-10.58-16.85-14.55-2.42-3.17-13.29-18.09-9.96-37.25.38-2.2.91-4.25,1.54-6.15l-5.68,11.13c.09-1.62.27-3.28.57-4.98,1.92-11.04,7.54-18.38,10.47-21.75,17.94-20.6,31.46-22.29,37.3-21.77,2.07.18,3.17.64,3.17.64v22.48s10.65,23.96,58.17,23.28c4.16-.07,8.6-.32,13.34-.79,4.49-.45,8.8-.62,12.92-.55,37.36.57,60.1,20.37,69.22,30.39.03.03.05.05.08.08.02.01.03.03.04.03.04.04.08.09.12.13s.07.08.1.11c.02.03.04.05.06.07.01.02.02.03.02.03,1.39,1.55,2.43,2.83,3.13,3.74.74.96,1.11,1.5,1.11,1.5h0Z"/><path class="cls-15" d="m288.04,513.39l-3.23,2.24-.85.59c-4.98-1.15-12.05-2.33-20.8-2.65-.61-.02-1.22-.04-1.82-.05-.4,0-.41,0-.02,0-25.94.43-50.63,10.49-67.57,17.25-3.5,1.4-9.68,3.96-18.55,6.13-5.6,1.37-15.05,3.61-27.28,3.42h-.31c-9.5-.17-21.57-.39-34.2-7.51-8.31-4.68-13.74-10.58-16.85-14.55-2.42-3.17-13.29-18.09-9.96-37.25.38-2.2.91-4.25,1.54-6.15l5.43-10.64c-2.88,5.98-12.36,28.2-2.1,42.7,13.3,18.8,54.09,11.68,71.59,8.65,16.58-2.88,29.12-7.8,52.77-10.21,2.6-.27,12.36-1.22,25.19-1.19,9.24.02,14.66.56,22.81,1.36,0,0,5.83.57,13.11,2.47.69.18,2.66.93,6.6,2.44.93.35,2.57,1,4.09,2.5.03.03.06.06.08.08.02.01.03.03.04.03.12,1.01.21,1.51.26,1.5.04,0,.06-.39.04-1.16h-.01Z"/><path class="cls-4" d="m295.84,518.63s-1.62-.66-4.67-1.5c-1.69-.47-3.82-.99-6.36-1.5-4.71-.93-10.82-1.8-18.09-2.06-1.8-.07-3.59-.08-5.38-.05-1.19.02-1.2.02-.02,0-25.94.43-50.63,10.49-67.57,17.25-3.5,1.4-9.68,3.96-18.55,6.13-5.6,1.37-15.05,3.61-27.28,3.42h-.31c-9.5-.17-21.57-.39-34.2-7.51-8.31-4.68-13.74-10.58-16.85-14.55-2.42-3.17-13.29-18.09-9.96-37.25.38-2.2.91-4.25,1.54-6.15,1.69-5.16,4.08-9.22,6.19-12.15h.01c1.01-1.43,1.96-2.57,2.72-3.45,14.94-17.14,26.81-21.19,33.74-21.77,4.34-.36,6.74.64,6.74.64v22.48s10.1,22.76,54.6,23.28c5.16.06,10.79-.18,16.91-.79,3.21-.32,6.32-.5,9.35-.55,52.52-.91,77.44,36.08,77.44,36.08h0Z"/><path class="cls-14" d="m520.1,75.24c0-13.24,10.62-22.93,23.86-22.93s22.7,9.69,22.7,22.93-9.46,23.64-22.7,23.64-23.86-10.4-23.86-23.64Z"/><path class="cls-14" d="m544.01,154.28c0-5.93,4.75-10.26,10.68-10.26s10.16,4.34,10.16,10.26-4.23,10.58-10.16,10.58-10.68-4.65-10.68-10.58Z"/><path class="cls-14" d="m612.85,117.05c0-9.49-7.77-17.93-17.26-17.93s-18.09,8.44-18.09,17.93,8.6,17.42,18.09,17.42,17.26-7.93,17.26-17.42Z"/><path class="cls-19" d="m554.31,59.52c.17.06.11.31-.07.29-4.49-.48-20.11-1.02-25.17,13.66-.11.25-.63,1.35-1.8,1.73-.24.08-.8.26-1.43.03-.76-.28-1.09-.96-1.14-1.07-.43-.93-.12-2.15-.12-2.15h0s6.58-21.26,29.72-12.5h.01Z"/><path class="cls-19" d="m602.22,105.4c.11.04.07.2-.04.19-2.94-.31-13.16-.67-16.48,8.94-.07.16-.41.88-1.18,1.13-.16.05-.52.17-.93.02-.5-.18-.71-.63-.75-.7-.28-.61-.08-1.41-.08-1.41h0s4.31-13.91,19.45-8.18h0Z"/><path class="cls-19" d="m559.08,147.67c.07.03.05.13-.03.12-1.88-.2-8.39-.43-10.51,5.7-.05.1-.26.56-.75.72-.1.03-.33.11-.6,0-.32-.12-.45-.4-.48-.45-.18-.39-.05-.9-.05-.9h0s2.75-8.87,12.41-5.22v.02Z"/><path class="cls-14" d="m150.85,76.59c0-13.24-10.85-25.03-24.09-25.03s-25.25,11.78-25.25,25.03,12.01,24.31,25.25,24.31,24.09-11.07,24.09-24.31Z"/><path class="cls-14" d="m126.81,155.62c0-5.93-4.86-11.2-10.78-11.2s-11.3,5.27-11.3,11.2,5.38,10.88,11.3,10.88,10.78-4.95,10.78-10.88Z"/><path class="cls-14" d="m58.03,118.39c0-9.49,7.61-16.43,17.09-16.43s16.26,6.94,16.26,16.43-6.78,16.94-16.26,16.94-17.09-7.45-17.09-16.94Z"/><path class="cls-19" d="m116.41,60.86c-.17.06-.11.31.07.29,4.49-.48,20.11-1.02,25.17,13.66.11.25.63,1.35,1.8,1.73.24.08.8.26,1.43.03.76-.28,1.09-.96,1.14-1.07.43-.93.12-2.15.12-2.15h0s-6.58-21.26-29.72-12.5h0Z"/><path class="cls-19" d="m68.5,106.74c-.11.04-.07.2.04.19,2.94-.31,13.16-.67,16.48,8.94.07.16.41.88,1.18,1.13.16.05.52.17.93.02.5-.18.71-.63.75-.7.28-.61.08-1.41.08-1.41h0s-4.31-13.91-19.45-8.18h-.01Z"/><path class="cls-19" d="m111.63,149.01c-.07.03-.05.13.03.12,1.88-.2,8.39-.43,10.51,5.7.05.1.26.56.75.72.1.03.33.11.6,0,.32-.12.45-.4.48-.45.18-.39.05-.9.05-.9h0s-2.75-8.87-12.41-5.22v.02Z"/><path class="cls-14" d="m630.83,480.02c0,5.86-4.7,10.15-10.56,10.15s-10.05-4.29-10.05-10.15,4.19-10.47,10.05-10.47,10.56,4.6,10.56,10.47Z"/><path class="cls-14" d="m562.74,516.84c0,9.38,7.69,17.73,17.07,17.73s17.89-8.35,17.89-17.73-8.51-17.23-17.89-17.23-17.07,7.84-17.07,17.23Z"/><path class="cls-19" d="m586.5,504.93c.11.04.07.2-.04.19-2.91-.31-13.02-.66-16.3,8.85-.07.16-.41.87-1.16,1.12-.16.05-.52.17-.92.02-.49-.18-.71-.62-.74-.7-.28-.6-.08-1.39-.08-1.39h0s4.26-13.76,19.24-8.09h0Z"/><path class="cls-19" d="m624.81,472.53c.07.03.05.13-.03.12-1.86-.2-8.3-.42-10.39,5.64-.05.1-.26.56-.74.71-.1.03-.33.11-.59.01-.31-.11-.45-.4-.47-.44-.18-.38-.05-.89-.05-.89h0s2.72-8.78,12.27-5.16h0Z"/><path class="cls-7" d="m614.85,528.66h0c-2.98-.48-4.64-1.92-5.3-2.57-1.61-1.6-2.13-3.41-2.87-6.03-.78-2.74-.85-4.94-.85-5.79-.01-.53,0-2.66.68-5.44.76-3.14,1.32-5.44,3.32-7.24.7-.63,2.27-1.82,5.02-2.2h0"/></svg>