<svg width="713" height="592" viewBox="0 0 713 592" fill="none" xmlns="http://www.w3.org/2000/svg">
<g clip-path="url(#clip0_322_184)">
<path d="M673.827 248.14C671.378 253.616 669.189 259.113 667.454 264.668C656.116 284.71 633.939 299.809 613.972 313.82C587.328 332.513 559.719 359.027 565.672 390.847C570.014 414.062 590.899 431.304 607.238 449.6C623.292 467.556 636.105 489.921 638.089 512.389C638.724 519.383 638.293 526.4 636.592 533.292C627.59 569.748 585.672 590.141 545.751 591.841C510.058 593.36 474.638 583.725 439.161 576.708C434.966 575.869 430.759 575.076 426.564 574.339C390.917 568.093 354.725 566.098 318.806 562.289C297.536 560.033 276.356 557.143 255.437 552.347C199.211 539.481 141.908 508.795 119.334 458.09C102.712 420.716 107.95 378.037 125.865 342.567C127.089 340.13 128.37 337.727 129.72 335.369C150.673 298.585 183.973 269.78 219.098 244.615C247.194 224.494 277.898 205.087 293.692 175.172C304.191 155.289 288.329 166.081 306.686 152.33C314.339 146.594 323.682 141.731 333.761 137.775C350.281 131.268 368.762 127.188 384.976 125.703C400.146 124.308 422.641 123.447 448.764 124.331C503.21 126.156 573.382 135.576 625.696 163.587C647.114 175.059 664.03 193.525 671.378 215.55C675.425 227.679 675.901 238.448 673.827 248.14Z" fill="#F9CDE0"/>
<path d="M667.455 264.668C663.577 276.945 661.82 289.482 663.906 302.575C669.688 338.827 703.896 365.432 710.29 401.581C717.785 443.989 684.53 483.086 648.214 506.233C644.88 508.365 641.502 510.416 638.089 512.389C595.956 536.897 548.257 550.692 500.999 563.071C480.636 568.41 459.966 573.545 439.161 576.708C419.364 579.701 399.443 580.902 379.545 578.76C358.535 576.504 338.251 570.564 318.806 562.289C299.577 554.104 281.175 543.608 263.703 532.136C218.781 502.583 177.918 465.141 151.75 418.166C138.756 394.848 129.709 368.98 125.865 342.567C121.953 315.77 123.416 288.416 131.579 262.593C144.924 220.424 217.352 137.934 333.761 137.775C339.17 137.764 344.669 137.934 350.258 138.297C383.865 140.45 417.426 135.712 448.764 124.331C462.393 119.377 475.613 113.165 488.221 105.706C534.322 78.4663 593.836 49.22 636.354 49.5714C677.137 49.9228 719.837 98.9727 712.082 158.429C707.932 190.316 686.968 218.826 673.827 248.14C671.378 253.615 669.189 259.113 667.455 264.668Z" fill="#4D404E"/>
<path d="M169.766 158.236C169.766 158.236 218.225 164.811 241.117 208.635C241.117 208.635 238.192 130.486 205.447 110.036" fill="white"/>
<path d="M135.876 178.199C210.919 178.199 271.753 138.307 271.753 89.0993C271.753 39.8911 210.919 0 135.876 0C60.834 0 0 39.8911 0 89.0993C0 138.307 60.834 178.199 135.876 178.199Z" fill="white"/>
<path d="M661.389 265.835C648.055 253.729 631.638 255.645 629.302 255.962C624.098 256.415 608.247 258.445 595.741 271.016C588.28 278.52 585.14 286.637 584.448 288.473C582.532 293.631 582.022 297.882 581.444 306.565C580.911 314.636 580.4 325.382 580.389 338.226C580.412 339.439 580.389 341.173 580.298 343.247C579.822 353.302 579.913 362.654 574.856 368.81C570.083 374.614 561.76 379.25 547.429 379.76C506.51 381.222 520.399 334.474 520.399 334.474C564.141 244.728 551.624 150.823 498.97 107.826C463.878 79.1578 418.004 78.8517 410.317 78.897C402.709 78.9424 334.419 80.5294 295.404 134.601C260.789 182.585 262.955 252.867 302.581 307.358C279.894 309.059 257.206 310.748 234.519 312.46C248.578 289.584 250.415 264.691 240.006 250.589C233.317 241.52 223.339 237.02 223.339 237.02C219.813 235.433 212.137 231.975 202.556 233.608C192.964 235.252 186.252 241.157 182.749 244.241C180.594 246.145 178.531 248.378 178.531 248.378C175.946 251.178 174.029 253.808 172.68 255.849C172.68 255.849 195.402 253.117 201.899 262.106C208.395 271.107 198.985 283.44 198.985 283.44C198.985 283.44 143.462 347.385 175.934 404.846C199.268 446.154 241.253 438.797 263 431.406C263.057 431.542 263.113 431.678 263.17 431.803C268.941 444.975 281.912 453.851 296.629 454.758C299.94 455.143 303.103 455.324 306.13 455.324C306.641 455.324 307.128 455.324 307.616 455.302C308.602 455.302 309.577 455.245 310.53 455.188C311.006 455.154 311.482 455.12 311.958 455.086C312.899 455.007 313.829 454.916 314.747 454.803C315.144 454.758 315.53 454.701 315.915 454.656C322.31 453.737 327.979 451.958 333.002 449.566C333.455 449.35 333.898 449.135 334.34 448.92C336.743 447.695 338.988 446.358 341.086 444.896C341.313 444.748 341.539 444.589 341.755 444.431C342.14 444.159 342.503 443.887 342.877 443.626C343.115 443.433 343.354 443.263 343.592 443.07C344.862 442.096 346.063 441.087 347.22 440.044C347.515 439.772 347.798 439.522 348.093 439.25C348.433 438.922 348.762 438.615 349.091 438.298C350.304 437.119 351.46 435.895 352.537 434.671C352.832 434.342 353.127 433.99 353.41 433.65C354.068 432.891 354.703 432.12 355.304 431.338C355.701 430.828 356.098 430.295 356.472 429.785C356.812 429.331 357.141 428.867 357.458 428.413C357.685 428.085 357.912 427.767 358.127 427.438C358.309 427.178 358.479 426.928 358.649 426.656C358.966 426.191 359.261 425.727 359.556 425.262C359.794 424.888 360.021 424.514 360.247 424.151C360.406 423.89 360.565 423.641 360.712 423.38C360.894 423.074 361.064 422.779 361.234 422.485C361.302 422.371 361.37 422.258 361.438 422.145C361.891 421.34 362.334 420.558 362.742 419.775C362.855 419.56 362.98 419.333 363.093 419.118C363.093 419.084 363.127 419.061 363.127 419.039C363.218 419.277 363.309 419.515 363.399 419.775C363.49 420.013 363.581 420.252 363.671 420.501C364.601 422.927 366.03 426.067 368.139 429.467C368.32 429.762 368.513 430.057 368.706 430.363C368.898 430.658 369.091 430.952 369.307 431.259C369.499 431.553 369.703 431.859 369.941 432.165C370.928 433.548 372.028 434.954 373.275 436.348C373.524 436.632 373.785 436.915 374.046 437.198C374.08 437.233 374.103 437.278 374.137 437.301C374.386 437.573 374.647 437.845 374.908 438.117C375.645 438.876 376.427 439.636 377.243 440.373C377.436 440.543 377.617 440.713 377.81 440.871C378.026 441.075 378.264 441.257 378.49 441.461C378.536 441.495 378.581 441.54 378.638 441.574C378.989 441.88 379.364 442.175 379.738 442.458C379.783 442.504 379.828 442.549 379.885 442.572C380.271 442.878 380.667 443.184 381.076 443.479C381.098 443.501 381.11 443.513 381.132 443.513C381.529 443.819 381.949 444.113 382.368 444.397C382.878 444.737 383.389 445.088 383.91 445.417C398.287 454.508 412.641 453.397 416.825 452.921C417.686 452.819 418.537 452.706 419.376 452.592C420.215 452.479 421.031 452.343 421.859 452.207C421.984 452.207 422.108 452.173 422.233 452.15C422.981 452.026 423.741 451.89 424.478 451.765C425.442 451.572 426.383 451.38 427.324 451.187C427.914 451.051 428.492 450.915 429.07 450.79L429.762 450.62C430.363 450.473 430.952 450.325 431.542 450.167C432.29 449.963 433.016 449.77 433.741 449.543C434.433 449.339 435.125 449.135 435.805 448.908C436.077 448.818 436.338 448.738 436.61 448.636C437.063 448.489 437.528 448.33 437.97 448.172C438.594 447.956 439.195 447.729 439.796 447.503C439.864 447.48 439.921 447.457 439.989 447.423C440.624 447.185 441.224 446.947 441.837 446.687C441.927 446.653 442.03 446.607 442.12 446.562C442.687 446.335 443.243 446.086 443.798 445.836H443.821C444.399 445.576 444.966 445.326 445.522 445.043C445.578 445.02 445.646 444.997 445.714 444.952C446.293 444.68 446.86 444.385 447.426 444.091C448.005 443.796 448.572 443.49 449.139 443.172C449.207 443.138 449.275 443.104 449.331 443.07C449.83 442.798 450.318 442.515 450.794 442.232C451.338 441.903 451.86 441.585 452.381 441.257C452.891 440.928 453.402 440.599 453.901 440.271C454.025 440.191 454.15 440.112 454.286 440.01C454.672 439.749 455.034 439.5 455.397 439.228C457.053 438.049 458.595 436.813 460.046 435.532C460.307 435.317 460.556 435.09 460.794 434.863C461.202 434.501 461.599 434.127 461.985 433.752C463.221 432.562 464.388 431.327 465.488 430.08C465.806 429.706 466.112 429.343 466.407 428.98C466.633 428.708 466.86 428.447 467.064 428.175C467.915 427.121 468.72 426.044 469.456 424.967C469.672 424.661 469.876 424.355 470.08 424.049L470.964 424.332C482.223 435.351 509.287 458.51 545.297 458.759C548.926 458.782 554.878 458.589 562.089 457.195C590.197 451.765 615.503 432.415 627.919 407.125C635.991 390.676 636.717 375.521 637.012 368.175C638.236 336.571 624.46 312.562 636.683 299.038C639.064 296.408 641.638 295.048 642.386 294.662C655.028 288.28 670.822 298.052 674.099 300.172C674.326 298.324 676.264 279.302 661.446 265.847L661.389 265.835ZM332.276 424.604C332.163 424.638 332.015 424.672 331.823 424.718C331.052 424.899 329.6 425.16 327.877 425.103C327.741 425.103 327.605 425.103 327.457 425.081H327.401C327.163 425.058 326.925 425.035 326.675 425.001C326.46 424.967 326.222 424.945 325.995 424.91C325.711 424.854 325.405 424.786 325.11 424.706L332.424 424.559C332.424 424.559 332.344 424.582 332.276 424.593V424.604ZM363.139 418.993C363.331 418.619 363.524 418.256 363.706 417.882C363.887 417.52 364.068 417.157 364.238 416.794C364.261 416.76 364.272 416.749 364.272 416.726C364.545 416.148 364.817 415.581 365.077 415.014C365.168 414.81 365.259 414.606 365.35 414.402C365.463 414.153 365.565 413.903 365.678 413.654C366.415 411.976 367.028 410.401 367.56 408.995C367.64 408.814 367.697 408.632 367.765 408.462C367.844 408.247 367.912 408.032 367.991 407.827C368.116 407.465 368.241 407.125 368.354 406.785C368.49 406.388 368.615 406.002 368.728 405.651C368.808 405.402 368.876 405.175 368.944 404.96C369.057 404.597 369.159 404.268 369.25 403.962C369.329 403.69 369.397 403.452 369.465 403.214C369.556 402.874 369.647 402.579 369.715 402.33C369.737 402.239 369.76 402.148 369.783 402.058C369.873 401.717 369.919 401.502 369.93 401.434L363.161 418.982L363.139 418.993Z" fill="#F9CDE0"/>
<path d="M627.941 406.229C627.941 406.229 601.795 463.271 535.07 456.288C468.357 449.305 473.073 413.439 473.073 413.439L478.414 401.434C478.414 401.434 521.941 487.801 627.93 406.229" fill="#E8AFCD"/>
<path d="M281.833 159.256C288.454 151.276 334.544 97.5898 411.224 96.717C474.162 96.0028 516.147 131.336 526.158 140.246L509.843 119.116L489.389 101.829L454.082 86.7301L412.006 78.9084L371.291 84.531L339.068 96.5016L310.393 117.144L293.613 135.655L281.833 159.245V159.256Z" fill="#F9E2EF"/>
<path d="M167.056 380.395C167.056 380.395 207.307 438.593 260.358 412.747L261.299 429.581L243.283 435.26H220.878L203.18 429.581L187.76 419.027L178.508 406.206L169.573 390.416L167.045 380.395H167.056Z" fill="#E8AFCD"/>
<path d="M261.299 407.453C261.299 407.453 283.885 455.404 332.412 426.838L319.215 420.705L316.981 405.572L345.224 401.434L360.157 386.584C360.157 386.584 402.72 482.066 480.625 393.102L477.359 411.908L463.073 433.174L438.56 449.895L409.659 453.227L383.196 446.165L377.028 438.049L368.706 430.352L363.876 422.791L353.388 433.65L339.85 447.945L319.396 455.347L298.126 454.599L279.667 449.078L264.553 437.176L259.814 425.126V414.346L261.277 407.465L261.299 407.453Z" fill="#E8AFCD"/>
<path d="M263 431.406C241.253 438.808 199.268 446.154 175.934 404.846C143.462 347.385 198.985 283.44 198.985 283.44C198.985 283.44 208.395 271.107 201.899 262.106C195.402 253.117 172.68 255.849 172.68 255.849C174.029 253.808 175.946 251.19 178.531 248.378C178.531 248.378 180.594 246.145 182.749 244.241C186.252 241.157 192.964 235.251 202.556 233.608C212.137 231.975 219.813 235.444 223.339 237.02C226.457 238.414 234.689 242.37 240.006 250.589C251.594 268.443 241.514 291.874 241.514 291.874L235.267 308.662" stroke="#E288B3" stroke-width="8" stroke-linecap="round" stroke-linejoin="round"/>
<path d="M470.919 424.321C482.178 435.328 509.242 458.487 545.252 458.748C548.88 458.771 554.821 458.578 562.044 457.184C590.151 451.754 615.458 432.404 627.873 407.113C635.946 390.665 636.683 375.521 636.966 368.164C638.191 336.559 624.415 312.55 636.638 299.027C639.019 296.397 641.592 295.037 642.341 294.651C654.983 288.269 670.777 298.052 674.053 300.16C674.269 298.313 676.208 279.291 661.389 265.836C648.055 253.729 631.637 255.645 629.302 255.951C624.098 256.393 608.247 258.433 595.741 271.016C588.28 278.52 585.128 286.637 584.448 288.473C582.532 293.631 582.022 297.882 581.443 306.565C580.91 314.636 580.412 325.382 580.4 338.226C580.412 339.439 580.4 341.173 580.31 343.259C579.833 353.314 579.924 362.654 574.867 368.821C570.105 374.625 561.772 379.261 547.44 379.783C506.532 381.245 520.41 334.496 520.41 334.496C564.153 244.751 551.635 150.857 498.981 107.849C463.901 79.1918 418.027 78.8744 410.317 78.9311C398.423 79.0105 333.421 80.8922 295.404 134.635C265.71 176.612 263.918 234.073 290.291 281.921C290.291 281.921 303.454 304.797 302.593 307.393" stroke="#E288B3" stroke-width="8" stroke-linecap="round" stroke-linejoin="round"/>
<path d="M358.615 356.953H253.669C251.072 356.907 247.58 357.089 244.904 358.234C243.068 359.016 242.297 359.957 241.979 360.365C237.432 366.135 219.337 396.877 219.337 396.877C219.337 396.877 215.436 401.264 224.938 401.378C234.439 401.502 334.997 401.378 334.997 401.378C335.371 401.378 335.938 401.378 336.585 401.298C337.752 401.151 340.621 400.595 343.025 397.489C345.247 394.61 353.966 380.656 365.179 361.464C365.179 361.464 369.805 356.964 358.603 356.964L358.615 356.953Z" fill="#C695AC" stroke="#94375E" stroke-width="26" stroke-miterlimit="10"/>
<path d="M358.615 356.953H253.669C251.072 356.907 247.58 357.089 244.904 358.234C243.068 359.016 242.297 359.957 241.979 360.365C237.432 366.135 219.337 396.877 219.337 396.877C219.337 396.877 215.436 401.264 224.938 401.378C234.439 401.502 334.997 401.378 334.997 401.378C335.371 401.378 335.938 401.378 336.585 401.298C337.752 401.151 340.621 400.595 343.025 397.489C345.247 394.61 353.966 380.656 365.179 361.464C365.179 361.464 369.805 356.964 358.603 356.964L358.615 356.953Z" fill="#C695AC" stroke="#D9548C" stroke-width="16" stroke-miterlimit="10"/>
<path d="M358.615 356.953H253.669C251.072 356.907 247.58 357.089 244.904 358.234C243.068 359.016 242.297 359.957 241.979 360.365C237.432 366.135 219.337 396.877 219.337 396.877C219.337 396.877 215.436 401.264 224.938 401.378C234.439 401.502 334.997 401.378 334.997 401.378C335.371 401.378 335.938 401.378 336.585 401.298C337.752 401.151 340.621 400.595 343.025 397.489C345.247 394.61 353.966 380.656 365.179 361.464C365.179 361.464 369.805 356.964 358.603 356.964L358.615 356.953Z" fill="#C695AC" stroke="#92385E" stroke-width="10" stroke-miterlimit="10"/>
<path d="M358.615 356.953H253.669C251.072 356.907 247.58 357.089 244.904 358.234C243.068 359.016 242.297 359.957 241.979 360.365C237.432 366.135 219.337 396.877 219.337 396.877C219.337 396.877 215.436 401.264 224.938 401.378C234.439 401.502 334.997 401.378 334.997 401.378C335.371 401.378 335.938 401.378 336.585 401.298C337.752 401.151 340.621 400.595 343.025 397.489C345.247 394.61 353.966 380.656 365.179 361.464C365.179 361.464 369.805 356.964 358.603 356.964L358.615 356.953Z" fill="#C695AC"/>
<path d="M198.305 312.471H303.251C305.847 312.38 309.339 312.732 312.015 315.033C313.852 316.597 314.623 318.49 314.94 319.295C319.487 330.846 337.583 392.332 337.583 392.332C337.583 392.332 341.483 401.094 331.982 401.343C322.48 401.581 221.922 401.343 221.922 401.343C221.548 401.343 220.981 401.343 220.335 401.173C219.167 400.879 216.298 399.768 213.895 393.556C211.672 387.809 202.953 359.888 191.74 321.494C191.74 321.494 187.114 312.482 198.316 312.482L198.305 312.471Z" fill="#93375E" stroke="#94375E" stroke-width="26" stroke-miterlimit="10"/>
<path d="M198.305 312.471H303.251C305.847 312.38 309.339 312.732 312.015 315.033C313.852 316.597 314.623 318.49 314.94 319.295C319.487 330.846 337.583 392.332 337.583 392.332C337.583 392.332 341.483 401.094 331.982 401.343C322.48 401.581 221.922 401.343 221.922 401.343C221.548 401.343 220.981 401.343 220.335 401.173C219.167 400.879 216.298 399.768 213.895 393.556C211.672 387.809 202.953 359.888 191.74 321.494C191.74 321.494 187.114 312.482 198.316 312.482L198.305 312.471Z" fill="#C14A7D" stroke="#D9548C" stroke-width="16" stroke-miterlimit="10"/>
<path d="M198.305 312.471H303.251C305.847 312.38 309.339 312.732 312.015 315.033C313.852 316.597 314.623 318.49 314.94 319.295C319.487 330.846 337.583 392.332 337.583 392.332C337.583 392.332 341.483 401.094 331.982 401.343C322.48 401.581 221.922 401.343 221.922 401.343C221.548 401.343 220.981 401.343 220.335 401.173C219.167 400.879 216.298 399.768 213.895 393.556C211.672 387.809 202.953 359.888 191.74 321.494C191.74 321.494 187.114 312.482 198.316 312.482L198.305 312.471Z" fill="#C14A7D" stroke="#92385E" stroke-width="10" stroke-miterlimit="10"/>
<path d="M198.305 312.471H303.251C305.847 312.38 309.339 312.732 312.015 315.033C313.852 316.597 314.623 318.49 314.94 319.295C319.487 330.846 337.583 392.332 337.583 392.332C337.583 392.332 341.483 401.094 331.982 401.343C322.48 401.581 221.922 401.343 221.922 401.343C221.548 401.343 220.981 401.343 220.335 401.173C219.167 400.879 216.298 399.768 213.895 393.556C211.672 387.809 202.953 359.888 191.74 321.494C191.74 321.494 187.114 312.482 198.316 312.482L198.305 312.471Z" fill="#D9548C"/>
<path d="M338.376 396.084C338.376 398.498 337.208 401.196 331.981 401.332C322.48 401.582 221.911 401.332 221.911 401.332C221.536 401.332 220.981 401.332 220.323 401.173C219.155 400.879 216.287 399.768 213.883 393.544C211.649 387.797 202.93 359.877 191.717 321.483C191.717 321.483 187.091 312.471 198.293 312.471H208.237C210.958 335.165 228.305 395.302 336.142 387.491C337.049 390.529 337.571 392.32 337.571 392.32C337.571 392.32 338.365 394.1 338.365 396.072L338.376 396.084Z" fill="#CA4983"/>
<path d="M363.138 419.005C363.229 419.254 363.32 419.492 363.411 419.753C363.501 419.991 363.592 420.229 363.683 420.478C364.612 422.904 366.041 426.044 368.161 429.445C368.343 429.74 368.535 430.034 368.728 430.34C368.921 430.635 369.114 430.93 369.329 431.236C369.522 431.531 369.726 431.837 369.964 432.143C370.95 433.526 372.05 434.931 373.297 436.326C373.547 436.609 373.808 436.892 374.068 437.176C374.102 437.21 374.125 437.255 374.159 437.278C374.409 437.55 374.669 437.822 374.93 438.083C375.667 438.842 376.449 439.602 377.266 440.339C377.458 440.509 377.64 440.679 377.833 440.837C378.048 441.041 378.286 441.223 378.513 441.427L378.66 441.54C379.012 441.846 379.386 442.141 379.76 442.424C379.806 442.47 379.851 442.515 379.908 442.538C380.293 442.844 380.69 443.15 381.098 443.445C381.121 443.467 381.132 443.479 381.155 443.479C381.552 443.785 381.971 444.079 382.391 444.363C382.901 444.703 383.411 445.054 383.933 445.383C398.309 454.474 412.663 453.363 416.847 452.887C417.709 452.785 418.559 452.672 419.398 452.559C420.237 452.445 421.054 452.309 421.881 452.173C422.006 452.173 422.131 452.139 422.256 452.116C423.004 451.992 423.764 451.856 424.501 451.731C425.464 451.538 426.405 451.346 427.346 451.153C427.936 451.017 428.514 450.881 429.092 450.756L429.784 450.586C430.385 450.439 430.975 450.291 431.564 450.133C432.313 449.929 433.038 449.736 433.764 449.509C434.455 449.305 435.147 449.101 435.827 448.874C436.099 448.784 436.36 448.704 436.632 448.602C437.086 448.455 437.551 448.296 437.993 448.138C438.617 447.922 439.217 447.695 439.818 447.469C439.886 447.446 439.943 447.423 440.011 447.389C440.646 447.151 441.247 446.913 441.859 446.653C441.95 446.619 442.052 446.573 442.143 446.528C442.71 446.301 443.265 446.052 443.821 445.802H443.843C444.41 445.553 444.989 445.292 445.544 445.009C445.601 444.986 445.669 444.964 445.737 444.918C446.315 444.646 446.882 444.351 447.449 444.057C448.027 443.762 448.594 443.456 449.161 443.138C449.229 443.104 449.297 443.07 449.354 443.036C449.853 442.764 450.34 442.481 450.816 442.198C451.361 441.88 451.882 441.563 452.404 441.223C452.914 440.894 453.424 440.577 453.923 440.236C454.048 440.157 454.172 440.078 454.309 439.976C454.694 439.715 455.057 439.466 455.42 439.194C457.075 438.015 458.617 436.779 460.068 435.498C460.329 435.283 460.579 435.056 460.817 434.829C461.225 434.467 461.622 434.093 462.007 433.718C463.243 432.528 464.411 431.293 465.511 430.046C465.828 429.672 466.134 429.309 466.429 428.946C466.656 428.674 466.883 428.413 467.087 428.141C467.937 427.087 468.742 426.01 469.479 424.933C469.694 424.627 469.898 424.321 470.103 424.015C470.193 423.89 470.273 423.754 470.363 423.63C470.579 423.301 470.783 422.983 470.987 422.655C471.282 422.201 471.554 421.737 471.826 421.283C472.098 420.83 472.348 420.376 472.597 419.923C472.835 419.503 473.062 419.084 473.277 418.665C473.549 418.166 473.799 417.667 474.037 417.168C474.162 416.907 474.286 416.658 474.4 416.409C474.513 416.182 474.615 415.955 474.729 415.717C475.568 413.904 476.293 412.101 476.917 410.321C477.076 409.868 477.234 409.426 477.37 408.972C478.119 406.728 478.72 404.54 479.196 402.432C479.298 402.001 479.389 401.581 479.468 401.173C479.559 400.777 479.627 400.391 479.706 400.006C480.001 398.475 480.228 397.013 480.42 395.608C480.454 395.335 480.488 395.075 480.511 394.814C480.545 394.599 480.568 394.361 480.59 394.145C480.636 393.782 480.681 393.431 480.704 393.08C480.738 392.728 480.772 392.388 480.794 392.048C480.828 391.708 480.851 391.368 480.874 391.051C481.305 385.054 480.874 381.143 480.874 381.143C480.931 374.863 480.443 349.119 460.737 326.833C443.719 307.574 422.63 302.541 415.759 301.192C393.457 296.125 372.651 305.227 365.44 320.916C360.032 332.671 363.83 344.699 365.281 348.677C365.281 348.677 367.231 330.177 389.636 329.203C412.04 328.228 413.661 348.677 413.661 348.677C419.512 395.097 389.636 397.693 389.636 397.693" stroke="#E288B3" stroke-width="8" stroke-linecap="round" stroke-linejoin="round"/>
<path d="M260.143 418.143C260.573 407.431 265.336 399.439 265.936 398.453C267.354 396.492 277.104 382.515 272.342 365.76C269.825 356.919 264.417 351.296 261.56 348.734C261.56 348.734 252.796 340.459 235.255 334.36C235.255 334.36 273.238 307.336 309.532 345.311C309.532 345.311 335.337 367.472 318.296 408.61C318.296 408.61 316.845 413.393 317.446 418.132H260.143V418.143Z" fill="#F9CDE0"/>
<path d="M287.569 433.446H263.703L260.823 426.135V415.354L262.297 408.474C262.297 408.474 270.483 425.851 287.581 433.458L287.569 433.446Z" fill="#E8AFCD"/>
<path d="M332.412 424.571C332.412 424.571 332.333 424.593 332.265 424.605C332.151 424.639 332.004 424.684 331.811 424.718C331.04 424.899 329.589 425.16 327.865 425.103C327.729 425.103 327.593 425.103 327.446 425.081H327.389C327.162 425.058 326.913 425.035 326.664 425.001C326.448 424.967 326.21 424.945 325.983 424.911C325.7 424.854 325.394 424.786 325.099 424.707H325.076C324.09 424.446 323.092 424.06 322.128 423.46C321.981 423.369 321.845 423.29 321.697 423.188C321.697 423.188 321.675 423.188 321.675 423.165C321.471 423.029 321.278 422.893 321.085 422.723C320.881 422.575 320.7 422.405 320.507 422.224C314.951 417.032 318.285 406.048 318.285 406.048C335.326 364.899 309.52 342.749 309.52 342.749C273.238 304.774 235.255 331.798 235.255 331.798C252.784 337.886 261.549 346.161 261.549 346.161C264.406 348.734 269.825 354.357 272.331 363.199C277.105 379.953 267.354 393.93 265.936 395.88C265.29 396.934 260.097 405.64 260.097 417.112C260.097 417.486 260.097 417.86 260.12 418.234C260.12 418.597 260.154 418.959 260.165 419.333V419.413C260.188 419.685 260.199 419.968 260.233 420.24C260.29 420.954 260.369 421.68 260.483 422.405C260.517 422.666 260.551 422.916 260.596 423.154C260.698 423.822 260.834 424.491 260.982 425.16C261.038 425.421 261.095 425.67 261.163 425.908C261.276 426.407 261.412 426.894 261.549 427.382C261.605 427.586 261.662 427.767 261.73 427.96C261.764 428.096 261.809 428.221 261.855 428.345C261.945 428.606 262.025 428.867 262.127 429.139C262.388 429.876 262.671 430.624 262.988 431.372L263.159 431.769C268.93 444.941 281.901 453.817 296.617 454.724C299.928 455.109 303.092 455.291 306.119 455.291C306.618 455.291 307.105 455.29 307.604 455.268C308.591 455.268 309.566 455.211 310.518 455.154C310.994 455.12 311.47 455.086 311.947 455.052C312.888 454.973 313.817 454.882 314.736 454.769C315.121 454.724 315.518 454.678 315.904 454.622C322.298 453.703 327.967 451.924 332.99 449.532C333.444 449.317 333.886 449.101 334.328 448.886C336.732 447.662 338.977 446.324 341.074 444.862C341.301 444.714 341.528 444.556 341.743 444.397C342.129 444.125 342.492 443.853 342.866 443.592C343.104 443.399 343.342 443.218 343.58 443.036C344.85 442.062 346.052 441.053 347.208 440.01C347.503 439.749 347.787 439.488 348.081 439.216C348.422 438.899 348.762 438.582 349.079 438.264C350.292 437.085 351.449 435.861 352.526 434.637C352.832 434.297 353.116 433.957 353.399 433.616C354.057 432.857 354.692 432.086 355.292 431.304C355.689 430.794 356.086 430.272 356.46 429.751C356.8 429.298 357.129 428.833 357.447 428.379C357.673 428.051 357.9 427.733 358.116 427.404C358.297 427.144 358.467 426.883 358.637 426.622C358.955 426.158 359.249 425.693 359.544 425.228C359.782 424.854 360.009 424.48 360.236 424.117C360.395 423.856 360.553 423.607 360.701 423.346C360.882 423.04 361.052 422.745 361.222 422.451L361.426 422.111C361.88 421.306 362.322 420.524 362.73 419.741C362.855 419.515 362.968 419.299 363.082 419.084C363.082 419.05 363.116 419.027 363.116 419.005C363.309 418.619 363.501 418.256 363.683 417.894C363.875 417.531 364.046 417.168 364.216 416.806C364.238 416.772 364.25 416.76 364.25 416.737C364.522 416.159 364.794 415.593 365.055 415.026C365.145 414.822 365.236 414.618 365.327 414.414C365.44 414.164 365.542 413.915 365.656 413.666C366.392 411.988 367.005 410.412 367.538 409.006C367.617 408.825 367.674 408.644 367.742 408.474C367.821 408.258 367.889 408.043 367.969 407.839C368.093 407.476 368.218 407.136 368.331 406.796C368.467 406.399 368.592 406.014 368.705 405.662C368.785 405.413 368.853 405.186 368.921 404.971C369.034 404.608 369.136 404.279 369.227 403.973C369.306 403.701 369.374 403.463 369.442 403.225C369.533 402.885 369.624 402.59 369.692 402.341C369.715 402.25 369.737 402.16 369.76 402.069C369.851 401.729 369.896 401.514 369.907 401.446V401.423" stroke="#E288B3" stroke-width="7" stroke-linecap="round" stroke-linejoin="round"/>
<path d="M336.358 268.84C346.246 268.84 354.261 256.958 354.261 242.302C354.261 227.646 346.246 215.765 336.358 215.765C326.471 215.765 318.455 227.646 318.455 242.302C318.455 256.958 326.471 268.84 336.358 268.84Z" fill="#92385E"/>
<path d="M419.487 264.101C429.32 263.064 436.045 250.408 434.507 235.833C432.97 221.258 423.752 210.283 413.919 211.319C404.086 212.356 397.362 225.012 398.899 239.587C400.436 254.162 409.654 265.138 419.487 264.101Z" fill="#92385E"/>
<path d="M381.742 294.188C386.733 293.323 389.798 286.965 388.588 279.989C387.378 273.012 382.35 268.058 377.359 268.924C372.368 269.789 369.302 276.147 370.513 283.123C371.723 290.1 376.751 295.054 381.742 294.188Z" fill="#92385E"/>
<path d="M342.118 246.973C345.255 246.973 347.798 243.41 347.798 239.015C347.798 234.62 345.255 231.057 342.118 231.057C338.981 231.057 336.438 234.62 336.438 239.015C336.438 243.41 338.981 246.973 342.118 246.973Z" fill="#F9E2EF"/>
<path d="M412.221 242.556C415.336 242.177 417.43 238.333 416.898 233.97C416.367 229.607 413.412 226.378 410.298 226.757C407.184 227.136 405.09 230.98 405.621 235.343C406.152 239.705 409.107 242.935 412.221 242.556Z" fill="#F9E2EF"/>
<path d="M395.72 112.392C412.417 111.227 425.563 104.684 425.081 97.7762C424.599 90.8688 410.672 86.2131 393.975 87.3776C377.277 88.542 364.132 95.0855 364.614 101.993C365.096 108.9 379.022 113.556 395.72 112.392Z" fill="#F9E2EF"/>
<path d="M672.421 179.355C672.421 195.35 659.586 207.059 643.588 207.059C627.59 207.059 616.149 195.35 616.149 179.355C616.149 163.36 627.578 150.789 643.588 150.789C659.597 150.789 672.421 163.349 672.421 179.355Z" fill="#E288B3"/>
<path d="M643.52 83.8734C643.52 91.0376 637.772 96.2748 630.617 96.2748C623.463 96.2748 618.338 91.0376 618.338 83.8734C618.338 76.7092 623.451 71.0867 630.617 71.0867C637.783 71.0867 643.52 76.7092 643.52 83.8734Z" fill="#E288B3"/>
<path d="M560.332 128.843C560.332 140.303 569.731 150.505 581.194 150.505C592.657 150.505 603.054 140.303 603.054 128.843C603.054 117.382 592.657 107.803 581.194 107.803C569.731 107.803 560.332 117.382 560.332 128.843Z" fill="#E288B3"/>
<path d="M34.6606 339.541C34.6606 355.535 47.7789 369.773 63.777 369.773C79.7752 369.773 94.2994 355.535 94.2994 339.541C94.2994 323.546 79.7865 310.17 63.777 310.17C47.7789 310.17 34.6606 323.546 34.6606 339.541Z" fill="#E288B3"/>
<path d="M63.709 244.048C63.709 251.212 69.5822 257.583 76.7365 257.583C83.8909 257.583 90.399 251.212 90.399 244.048C90.399 236.884 83.9022 230.899 76.7365 230.899C69.5708 230.899 63.709 236.884 63.709 244.048Z" fill="#E288B3"/>
<path d="M146.829 289.028C146.829 300.489 137.634 308.877 126.171 308.877C114.708 308.877 106.522 300.489 106.522 289.028C106.522 277.568 114.708 268.567 126.171 268.567C137.634 268.567 146.829 277.568 146.829 289.028Z" fill="#E288B3"/>
<path d="M55.0582 99.2902C52.3144 99.891 49.4799 100.492 46.736 100.923C46.4753 102.555 46.3052 104.267 46.1351 105.899C45.965 107.701 46.1351 109.674 45.7043 111.385C45.1033 113.358 43.6407 114.729 41.4978 114.729C39.1848 114.729 37.2006 112.757 37.2006 110.445C37.2006 107.701 37.5408 105.037 37.8923 102.373C37.8923 102.113 37.983 101.863 37.983 101.603C35.0691 101.433 32.0645 100.741 32.0645 97.1364C32.0645 94.8239 34.0373 92.8514 36.3503 92.8514C37.2913 92.8514 38.3231 92.9421 39.2642 93.0215C40.0352 89.0766 40.8969 85.0411 41.8379 81.0962C38.6633 81.0962 34.026 80.1554 34.026 76.1198C34.026 73.8073 35.9988 71.8236 38.3231 71.8236C39.4343 71.8236 40.3867 72.515 41.4978 72.515C42.3595 72.515 43.2099 72.515 43.9809 72.4243C44.6725 69.9305 48.3574 56.7243 49.4685 55.1713C50.3302 54.0604 51.5321 53.3689 52.9834 53.3689C55.2963 53.3689 57.2692 55.3413 57.2692 57.6538C57.2692 59.1955 55.4664 63.7525 54.9562 65.5435C54.3553 67.516 53.8451 69.409 53.2441 71.3815C56.2487 70.9507 59.2534 70.5199 62.258 70.1799C63.1197 67.516 63.97 64.7727 64.8317 62.1088C65.2626 60.6465 66.0336 57.8125 66.8953 56.7016C67.6663 55.6701 69.0382 54.9899 70.3307 54.9899C72.6437 54.9899 74.6279 56.9623 74.6279 59.2748C74.6279 60.3064 72.8251 65.7929 71.4532 69.8285C74.968 69.9191 79.0951 70.5993 79.0951 74.5441C79.0951 76.8566 77.1223 78.8404 74.798 78.8404C74.1063 78.8404 73.3354 78.6704 72.6551 78.5797C71.4532 78.4096 70.172 78.4096 68.9702 78.4096H68.8001C67.6889 82.1845 66.7365 85.7892 65.8862 89.3033C69.0609 89.3033 73.0065 89.4734 73.0065 93.6789C73.0065 95.9914 71.0337 97.9639 68.7094 97.9639C67.8477 97.9639 66.9973 97.8732 66.1356 97.8732C65.444 97.8732 64.8431 97.8732 64.1628 97.9639C63.4711 101.909 63.0516 106.035 62.8702 110.581C62.7795 113.074 61.3282 115.126 58.5731 115.126C56.2601 115.126 54.2759 113.154 54.2759 110.83C54.2759 106.964 54.5367 103.11 55.0469 99.2448L55.0582 99.2902ZM48.1873 91.9106C51.0219 91.2191 53.9358 90.6183 56.7703 90.1989C57.5413 86.5034 58.4824 82.7286 59.6842 79.1238C56.6796 79.5546 53.7657 79.9853 50.8404 80.4161C49.8087 84.1909 48.947 88.0564 48.176 91.9106H48.1873Z" fill="#CA4983"/>
<path d="M91.4537 81.0055C89.9117 76.7206 89.1407 72.3336 89.1407 67.8786C89.1407 58.9574 94.3789 45.3998 105.014 45.3998C106.817 45.3998 108.529 46.0006 110.082 46.8621C114.379 49.356 116.001 53.5502 116.001 58.3566C116.001 68.4794 108.45 76.2104 101.669 82.8079C102.871 84.9503 104.152 87.0134 105.615 89.0766C106.908 87.5349 107.928 86.1633 108.699 85.2111C110.071 83.4087 111.443 81.0962 113.166 79.7245C113.937 79.1237 114.878 78.693 115.91 78.693C118.223 78.693 120.207 80.6654 120.207 82.9892C120.207 85.3131 117.123 88.5664 115.74 90.2781C114.368 91.9899 112.826 94.053 111.103 96.1161C112.815 97.8278 114.447 99.3808 116.772 100.231C118.144 100.662 119.005 100.571 120.207 101.523C121.148 102.294 121.749 103.496 121.749 104.788C121.749 107.1 119.776 109.084 117.452 109.084C113.155 109.084 108.007 105.309 105.184 102.475C100.717 106.59 95.7395 109.946 90.592 109.946C85.0136 109.946 80.8071 106.08 80.8071 100.424C80.8071 94.0756 85.8753 86.8661 89.991 82.4905C90.4219 81.9804 90.9321 81.5496 91.4537 81.0282V81.0055ZM99.7759 95.6853C99.5151 95.3452 99.345 95.0845 99.0842 94.7445C97.7917 92.9421 96.5898 91.0603 95.388 89.1672C93.2451 91.6611 91.3516 94.2343 90.1498 97.1476C89.6396 98.3492 89.6396 99.3808 89.3788 100.662C89.5489 101.353 90.0704 101.353 90.6713 101.353C93.2451 101.353 96.5898 98.8593 99.7645 95.6853H99.7759ZM98.404 74.2267C103.121 69.4203 107.418 64.0131 107.418 58.3566C107.418 56.8943 107.078 53.981 105.014 53.981C100.297 53.981 97.7123 63.7638 97.7123 67.8786C97.7123 70.1118 97.9731 72.1636 98.404 74.2267Z" fill="#CA4983"/>
<path d="M160.628 76.8906C160.628 79.2031 158.655 81.1869 156.331 81.1869C155.469 81.1869 154.619 80.9261 153.927 80.416C151.093 81.0168 146.716 86.594 145.854 89.2579C147.827 87.7163 149.551 85.9932 151.342 84.2815C152.204 83.42 153.236 82.3885 154.256 81.7877C154.948 81.4476 155.628 81.1869 156.399 81.1869C159.233 81.1869 161.206 84.1002 162.147 86.424C162.839 88.0563 163.088 89.9381 164.551 91.1397C165.753 90.7089 166.864 88.9972 167.556 87.9657C170.651 83.0686 172.193 78.8744 172.193 73.0364C172.193 71.1434 171.762 69.2616 170.56 67.72C168.417 64.886 161.467 62.8229 158.032 62.8229C149.959 62.8229 139.834 70.2025 135.718 76.8906C133.405 80.6654 132.022 85.2111 132.022 89.6774C132.022 95.1639 136.398 102.124 140.866 105.207C143.439 107.01 146.535 108.121 149.619 108.121C152.192 108.121 154.766 107.611 157.091 106.658C158.553 106.148 160.004 105.117 161.558 105.117C163.871 105.117 165.855 107.089 165.855 109.413C165.855 110.524 165.345 111.646 164.562 112.417C163.871 113.188 162.85 113.528 161.898 113.959C158.032 115.67 153.916 116.702 149.619 116.702C140.095 116.702 132.362 110.785 127.566 102.974C125.162 99.0294 123.45 94.393 123.45 89.6774C123.45 83.8394 125.162 77.7521 128.167 72.7757C133.915 63.333 146.705 54.2417 158.032 54.2417C161.898 54.2417 165.674 55.1826 169.188 56.7356C176.479 60.0003 180.776 64.716 180.776 73.0364C180.776 79.5545 179.143 85.3131 175.798 90.8903C173.134 95.4359 169.789 99.8116 164.041 99.8116C160.004 99.8116 156.75 95.8667 155.288 92.432C152.283 95.2659 147.907 99.3014 143.53 99.3014C139.584 99.3014 136.841 95.6967 136.841 91.9218C136.841 89.428 137.441 86.9454 138.473 84.6329C140.956 79.1464 147.997 71.7555 154.437 71.7555C157.351 71.7555 160.617 73.7279 160.617 76.9019L160.628 76.8906Z" fill="#CA4983"/>
<path d="M184.064 51.317C184.835 50.0247 186.206 49.1746 187.76 49.1746C190.073 49.1746 192.057 51.147 192.057 53.4708C192.057 55.4432 191.547 57.3363 191.365 59.3088C191.105 62.5735 191.105 65.9175 191.105 69.1822C191.105 73.4785 191.195 77.8541 191.275 82.139C191.365 84.2815 191.445 86.3446 191.445 88.4871C191.445 90.7996 189.472 92.772 187.148 92.772C185.515 92.772 183.973 91.7404 183.281 90.2781C183.111 89.8474 182.941 89.5073 182.85 89.0765C182.51 87.0134 182.76 84.7803 182.68 82.6378C182.59 78.2622 182.51 73.7959 182.51 69.4203C182.51 65.9062 182.601 53.7996 184.052 51.317H184.064ZM183.293 104.607C183.293 101.773 184.404 99.12 187.669 99.12C189.982 99.12 191.966 101.092 191.966 103.416V106.08C191.966 108.393 189.993 110.365 187.669 110.365C184.234 110.365 183.293 107.531 183.293 104.618V104.607Z" fill="#CA4983"/>
<path d="M207.919 54.8425C208.259 54.7518 208.69 54.6725 209.03 54.6725C209.971 54.6725 210.833 55.0126 211.695 55.4433C215.21 57.155 217.443 60.5104 217.443 64.4553C217.443 72.4357 210.833 82.5585 202.171 82.5585C197.624 82.5585 193.758 79.2938 193.758 74.6688C193.758 67.9807 199.075 54.6725 206.457 54.6725C206.967 54.6725 207.488 54.7632 207.919 54.8425ZM208.089 63.2537C207.828 63.3444 207.579 63.3444 207.318 63.3444H207.057C204.654 65.6569 202.59 70.6333 202.341 73.9887H202.431C206.207 73.0478 208.872 67.9807 208.872 64.2966C208.872 63.8658 208.531 63.6051 208.101 63.265L208.089 63.2537ZM204.223 102.895C207.908 88.9066 214.348 76.4599 221.219 63.8545C221.99 62.3922 224.394 57.5064 225.335 56.6449C226.196 55.8741 227.137 55.3526 228.339 55.3526C230.652 55.3526 232.625 57.3251 232.625 59.6489C232.625 61.542 230.482 64.716 229.541 66.4277C222.33 79.5545 215.38 92.9421 211.865 107.622C211.173 110.626 211.094 114.231 207.057 114.231C204.744 114.231 202.76 112.258 202.76 109.946C202.76 107.633 203.622 105.139 204.223 102.906V102.895ZM223.532 89.3373C224.734 87.5349 225.936 85.9026 228.248 85.9026C229.45 85.9026 230.561 86.4127 231.344 87.2742C232.546 87.3649 233.748 87.9657 234.779 88.5665C238.725 90.7996 242.501 94.6538 242.501 99.4602C242.501 106.33 235.46 114.99 228.248 114.99C224.212 114.99 220.697 112.678 219.495 108.812C218.985 107.271 218.985 105.638 218.985 104.097C218.985 99.2108 220.879 93.3728 223.532 89.3373ZM229.802 95.606C228.43 98.3493 227.568 101.875 227.568 104.879C227.568 105.139 227.568 106.42 228.078 106.42C230.312 106.42 233.918 101.875 233.918 99.8116C233.918 98.0092 231.253 96.3768 229.802 95.606Z" fill="#CA4983"/>
<path d="M501.476 175.739C503.879 182.155 502.53 189.217 498.097 190.883C493.664 192.55 488.833 187.8 486.43 181.373C484.026 174.957 484.582 168.336 489.026 166.67C493.471 165.004 499.083 169.311 501.487 175.727L501.476 175.739Z" fill="#E288B3"/>
<path d="M510.523 154.801C512.065 158.928 509.594 163.451 505.931 164.822C502.269 166.194 498.278 164.085 496.736 159.971C495.194 155.856 496.929 151.934 500.591 150.562C504.253 149.19 508.993 150.675 510.535 154.801H510.523Z" fill="#E288B3"/>
<path d="M478.549 153.135C477.563 148.85 478.957 144.679 482.257 143.919C485.556 143.16 489.354 146.13 490.341 150.426C491.327 154.722 489.116 158.667 485.828 159.426C482.54 160.186 479.547 157.42 478.549 153.135Z" fill="#E288B3"/>
<path d="M287.717 174.594C287.139 178.958 288.568 182.948 291.856 183.39C295.144 183.832 298.477 180.466 299.067 176.113C299.645 171.748 297.343 167.316 294.055 166.885C290.767 166.455 288.307 170.241 287.717 174.605V174.594Z" fill="#E288B3"/>
<path d="M310.042 159.37C310.042 155.527 307.616 152.568 305.087 152.568C302.559 152.568 300.779 155.527 300.779 159.37C300.779 163.213 302.559 166.511 305.087 166.511C307.616 166.511 310.042 163.213 310.042 159.37Z" fill="#E288B3"/>
<path d="M52.2464 318.49C52.0423 318.57 52.1104 318.864 52.3258 318.842C57.7568 318.263 76.6235 317.606 82.7461 335.346C82.8821 335.653 83.5057 336.979 84.9117 337.432C85.2065 337.523 85.8754 337.75 86.6351 337.478C87.5535 337.149 87.9503 336.321 88.0183 336.174C88.5285 335.052 88.1657 333.578 88.1657 333.578C88.1657 333.578 80.2063 307.891 52.2464 318.479V318.49Z" fill="#F9CDE0"/>
<path d="M658.407 160.107C658.611 160.186 658.543 160.481 658.327 160.458C652.896 159.88 634.03 159.222 627.907 176.963C627.771 177.269 627.147 178.595 625.741 179.049C625.447 179.139 624.778 179.366 624.018 179.094C623.1 178.765 622.703 177.938 622.635 177.79C622.125 176.668 622.487 175.195 622.487 175.195C622.487 175.195 630.447 149.508 658.407 160.095V160.107Z" fill="#F9CDE0"/>
<path d="M589.369 114.299C589.505 114.344 589.46 114.548 589.312 114.525C585.752 114.151 573.405 113.721 569.403 125.328C569.312 125.521 568.904 126.394 567.985 126.7C567.793 126.768 567.35 126.904 566.852 126.723C566.251 126.507 565.99 125.963 565.945 125.873C565.604 125.136 565.854 124.172 565.854 124.172C565.854 124.172 571.058 107.361 589.369 114.287V114.299Z" fill="#F9CDE0"/>
<path d="M636.172 74.7141C636.252 74.7481 636.229 74.8728 636.138 74.8615C633.871 74.6234 626.002 74.3401 623.44 81.7537C623.383 81.8784 623.122 82.4338 622.533 82.6265C622.408 82.6719 622.124 82.7625 621.818 82.6378C621.433 82.5018 621.274 82.1504 621.24 82.0937C621.025 81.629 621.183 81.0055 621.183 81.0055C621.183 81.0055 624.505 70.2818 636.172 74.7028V74.7141Z" fill="#F9CDE0"/>
<path d="M121.341 273.85C121.228 273.895 121.262 274.054 121.386 274.043C124.346 273.725 134.641 273.374 137.974 283.043C138.042 283.213 138.382 283.927 139.153 284.188C139.312 284.245 139.686 284.358 140.094 284.211C140.593 284.029 140.809 283.576 140.843 283.508C141.126 282.896 140.922 282.091 140.922 282.091C140.922 282.091 136.58 268.08 121.33 273.861L121.341 273.85Z" fill="#F9CDE0"/>
<path d="M72.53 235.954C72.4506 235.988 72.4733 236.102 72.564 236.09C74.6615 235.864 81.9633 235.614 84.333 242.472C84.3897 242.586 84.6278 243.107 85.172 243.277C85.2854 243.311 85.5462 243.402 85.841 243.289C86.1924 243.164 86.3512 242.835 86.3739 242.79C86.5779 242.359 86.4306 241.781 86.4306 241.781C86.4306 241.781 83.3579 231.851 72.5413 235.943L72.53 235.954Z" fill="#F9CDE0"/>
</g>
<defs>
<clipPath id="clip0_322_184">
<rect width="713" height="592" fill="white"/>
</clipPath>
</defs>
</svg>
