<svg width="1259" height="1395" viewBox="0 0 1259 1395" fill="none" xmlns="http://www.w3.org/2000/svg">
<path d="M774.188 -201.659C708.007 -131.485 563.955 67.8049 698.277 259.49C874.966 511.634 1031.89 738.014 855.566 988.773C714.508 1189.38 541.579 1181.06 472.746 1151.83" stroke="white" stroke-opacity="0.8" stroke-width="3"/>
<path d="M805.271 -189.66C739.09 -119.487 595.038 79.8033 729.36 271.488C906.049 523.632 1062.97 750.012 886.649 1000.77C745.591 1201.38 572.662 1193.06 503.829 1163.83" stroke="white" stroke-opacity="0.8" stroke-width="3"/>
<path d="M836.354 -177.662C770.172 -107.489 626.12 91.8013 760.443 283.486C937.131 535.63 1094.05 762.01 917.732 1012.77C776.674 1213.38 603.744 1205.06 534.912 1175.82" stroke="white" stroke-opacity="0.8" stroke-width="3"/>
<path d="M867.436 -165.664C801.255 -95.4907 657.203 103.8 791.525 295.485C968.214 547.628 1125.14 774.008 948.814 1024.77C807.756 1225.38 634.827 1217.06 565.994 1187.82" stroke="white" stroke-opacity="0.8" stroke-width="3"/>
<path d="M898.519 -153.666C832.338 -83.4927 688.286 115.798 822.608 307.483C999.297 559.626 1156.22 786.006 979.897 1036.77C838.839 1237.37 665.91 1229.06 597.077 1199.82" stroke="white" stroke-opacity="0.8" stroke-width="3"/>
<path d="M929.602 -141.668C863.42 -71.4943 719.368 127.796 853.691 319.481C1030.38 571.625 1187.3 798.005 1010.98 1048.76C869.922 1249.37 696.992 1241.05 628.16 1211.82" stroke="white" stroke-opacity="0.8" stroke-width="3"/>
<path d="M960.685 -129.67C894.503 -59.4962 750.451 139.794 884.774 331.479C1061.46 583.623 1218.39 810.003 1042.06 1060.76C901.005 1261.37 728.075 1253.05 659.243 1223.82" stroke="white" stroke-opacity="0.8" stroke-width="3"/>
</svg>
